<?xml version="1.0" encoding="utf-8"?>
<!-- Generator: Adobe Illustrator 28.0.0, SVG Export Plug-In . SVG Version: 6.00 Build 0)  -->
<svg version="1.1" id="Layer_1" xmlns="http://www.w3.org/2000/svg" xmlns:xlink="http://www.w3.org/1999/xlink" x="0px" y="0px"
	 viewBox="0 0 618.8 524.7" style="enable-background:new 0 0 618.8 524.7;" xml:space="preserve">
<style type="text/css">
	.st0{fill:#FFFFFF;}
	.st1{fill:#C7DB07;}
	.st2{fill:#FE562C;}
	.st3{fill:#DBFF07;}
	.st4{fill:#554FAA;}
	.st5{fill:#685BC7;}
	.st6{fill:#7169E2;}
	.st7{fill:#D7FF21;}
	.st8{fill:#1D1D1B;}
	.st9{fill:#9B311C;}
	.st10{opacity:0.25;fill:#1D1D1B;}
	.st11{fill:#D8FF01;}
	.st12{opacity:0.3;fill:#1D1D1B;}
	.st13{fill:#B7B7B7;}
	.st14{fill:#33312F;}
	.st15{fill:#9CB202;}
	.st16{fill:#262523;}
	.st17{opacity:0.5;fill:#1D1D1B;}
	.st18{fill:#C7B995;}
	.st19{opacity:0.2;fill:#1D1D1B;}
	.st20{fill:#ACC402;}
	.st21{opacity:0.15;fill:#1D1D1B;}
	.st22{fill:#FF4931;}
	.st23{fill:#D34226;}
	.st24{fill:#7474F7;}
	.st25{fill:#D5F421;}
	.st26{fill:#49203C;}
	.st27{fill:none;stroke:#FE562C;stroke-miterlimit:10;}
	.st28{fill:none;stroke:#49203C;stroke-width:0.75;stroke-miterlimit:10;}
	.st29{fill:#B7D11C;}
	.st30{fill:#8C281B;}
	.st31{fill:#D1352A;}
	.st32{fill:none;stroke:#D7FF21;stroke-miterlimit:10;}
	.st33{fill:none;stroke:#7169E2;stroke-miterlimit:10;}
	.st34{fill:#BC3B22;}
</style>
<g>
	
		<rect x="281.7" y="-143.6" transform="matrix(0.9999 -1.502515e-02 1.502515e-02 0.9999 1.1458 5.2751)" class="st0" width="139.9" height="139.9"/>
	
		<rect x="301.2" y="-124.1" transform="matrix(0.9999 -1.502515e-02 1.502515e-02 0.9999 1.1451 5.2767)" class="st1" width="101.1" height="101"/>
	<path class="st0" d="M296.3-108.9c6,5.8,15.5,5.7,21.3-0.3c5.8-6,5.7-15.5-0.3-21.3c-6-5.8-15.5-5.7-21.3,0.3l0,0
		C290.2-124.3,290.3-114.7,296.3-108.9z"/>
	<path class="st2" d="M342.1-45.3c6,5.8,15.5,5.6,21.3-0.3c5.8-6,5.6-15.5-0.3-21.3c-6-5.8-15.5-5.6-21.3,0.3
		C335.9-60.6,336.1-51.1,342.1-45.3L342.1-45.3z"/>
	<path class="st3" d="M402.4-60.8l0.5,37l-101,1.5l-0.7-47.3c7-5.7,15.5-9.3,24.3-6c22,8.4,23.6,38.5,41.8,24
		C379.3-61.1,392.7-63.6,402.4-60.8z"/>
</g>
<g>
	
		<rect x="35.6" y="904.5" transform="matrix(3.465565e-03 -1 1 3.465565e-03 -869.2624 1076.5533)" class="st0" width="139.9" height="139.9"/>
	
		<rect x="55.1" y="923.9" transform="matrix(3.465565e-03 -1 1 3.465565e-03 -869.2133 1076.7032)" class="st1" width="101" height="101.1"/>
	<path class="st2" d="M95.4,1002.6c5.9,5.9,15.4,5.9,21.3,0.1c5.9-5.9,5.9-15.4,0.1-21.3c-5.9-5.9-15.4-5.9-21.3-0.1
		C89.5,987.2,89.5,996.7,95.4,1002.6L95.4,1002.6z"/>
	<path class="st4" d="M130.8,941.8c0.3-1.6-1.4-2.8-2.8-1.9c-4.5,3-10.9,10.6-15.4,18c-5.7,9.4-6.9,18.6-6.9,18.6s8.1-4.8,14.5-13.6
		C125.2,955.9,129.7,947.1,130.8,941.8z"/>
	<path class="st4" d="M80.6,1011.4c-0.3,1.6,1.4,2.7,2.8,1.9c4.5-3.1,10.8-10.6,15.3-18.1c5.6-9.4,6.8-18.7,6.8-18.7
		s-8,4.9-14.4,13.7C85.9,997.2,81.6,1006.1,80.6,1011.4z"/>
	<path class="st4" d="M140.4,1001.7c1.6,0.3,2.8-1.4,1.9-2.8c-3-4.5-10.6-10.9-18-15.4c-9.4-5.7-18.6-6.9-18.6-6.9
		s4.8,8.1,13.6,14.5C126.3,996.1,135.1,1000.6,140.4,1001.7z"/>
	<path class="st4" d="M70.7,951.5c-1.6-0.3-2.7,1.4-1.9,2.8c3.1,4.5,10.6,10.8,18.1,15.3c9.4,5.6,18.7,6.8,18.7,6.8
		s-4.9-8-13.7-14.4C84.9,956.9,76,952.6,70.7,951.5z"/>
	<path class="st4" d="M147.2,966.1c1.3-1,0.7-3.1-0.9-3.2c-5.4-0.5-15.1,1.1-23.4,3.9c-10.4,3.5-17.3,9.8-17.3,9.8s9.3,1.6,19.8-1.1
		C133.9,973.4,143,969.4,147.2,966.1z"/>
	<path class="st4" d="M64,987.1c-1.3,1-0.7,3.1,0.9,3.2c5.4,0.5,15.1-1.2,23.4-4.1c10.4-3.6,17.2-9.9,17.2-9.9s-9.3-1.5-19.8,1.2
		C77.3,979.7,68.2,983.7,64,987.1z"/>
	<path class="st4" d="M116.1,1018.1c1,1.3,3.1,0.7,3.2-0.9c0.5-5.4-1.1-15.1-3.9-23.4c-3.5-10.4-9.8-17.3-9.8-17.3
		s-1.6,9.3,1.1,19.8C108.8,1004.8,112.6,1014,116.1,1018.1z"/>
	<path class="st4" d="M95,934.9c-1-1.3-3.1-0.7-3.2,0.9c-0.5,5.4,1.2,15.1,4.1,23.4c3.6,10.4,9.9,17.2,9.9,17.2s1.5-9.3-1.2-19.8
		C102.3,948.2,98.4,939.1,95,934.9z"/>
	<path class="st4" d="M141.2,952.5c0.8-1.4-0.4-3.1-1.9-2.7c-5.2,1.3-13.8,6.1-20.6,11.6c-8.5,6.8-12.9,15.1-12.9,15.1
		s9.2-1.7,18.2-7.8C131.1,963.9,138.3,957,141.2,952.5z"/>
	<path class="st4" d="M70.1,1000.7c-0.8,1.4,0.4,3.1,2,2.7c5.2-1.4,13.8-6.2,20.6-11.8c8.4-6.9,12.8-15.2,12.8-15.2s-9.1,1.7-18.3,8
		C80.1,989.3,73,996.1,70.1,1000.7z"/>
	<path class="st4" d="M126.5,1014c1.3,1,3.1-0.1,2.8-1.7c-0.9-5.3-4.9-14.4-9.8-21.6c-6.1-9.1-13.9-14.2-13.9-14.2s0.9,9.3,6.3,18.9
		C116,1003,122.2,1010.7,126.5,1014z"/>
	<path class="st4" d="M84.6,939.1c-1.3-0.9-3.1,0.1-2.8,1.7c0.9,5.3,5,14.3,10,21.5c6.1,9,14,14.1,14,14.1s-1-9.3-6.4-18.8
		C95.1,950,88.9,942.3,84.6,939.1z"/>
	<path class="st4" d="M147.8,984.6c1.6-0.4,1.9-2.5,0.5-3.3c-4.6-2.8-14.2-5.5-22.9-6.3c-10.9-1.2-19.8,1.5-19.8,1.5
		s7.7,5.2,18.5,7.3C132.6,985.6,142.5,985.9,147.8,984.6z"/>
	<path class="st4" d="M63.5,968.5c-1.6,0.4-1.8,2.5-0.5,3.3c4.7,2.7,14.2,5.4,22.9,6.2c10.9,1.1,19.8-1.7,19.8-1.7
		s-7.7-5.2-18.5-7.2C78.6,967.5,68.7,967.2,63.5,968.5z"/>
	<path class="st4" d="M97.4,1018.7c0.4,1.6,2.5,1.9,3.3,0.5c2.8-4.6,5.5-14.2,6.3-22.9c1.2-10.9-1.5-19.8-1.5-19.8
		s-5.2,7.7-7.3,18.5C96.5,1003.5,96.2,1013.5,97.4,1018.7z"/>
	<path class="st4" d="M113.6,934.4c-0.4-1.6-2.5-1.8-3.3-0.5c-2.7,4.7-5.4,14.2-6.2,22.9c-1.1,10.9,1.7,19.8,1.7,19.8
		s5.2-7.7,7.2-18.5C114.6,949.5,114.8,939.6,113.6,934.4z"/>
	<path class="st5" d="M123.8,937.7c0-1.6-2-2.4-3.1-1.4c-3.8,3.8-8.7,12.4-11.8,20.6c-3.8,10.2-3.4,19.5-3.4,19.5s7-6.2,11.7-16
		C121.1,952.6,123.7,943.1,123.8,937.7z"/>
	<path class="st5" d="M87.4,1015.4c0,1.6,2,2.4,3.1,1.3c3.8-3.8,8.7-12.4,11.7-20.6c3.8-10.2,3.3-19.6,3.3-19.6s-7,6.2-11.6,16.1
		C90.2,1000.4,87.5,1010,87.4,1015.4z"/>
	<path class="st5" d="M144.4,994.8c1.6,0,2.4-2,1.4-3.1c-3.8-3.8-12.4-8.7-20.6-11.8c-10.2-3.8-19.5-3.4-19.5-3.4s6.2,7,16,11.7
		C129.4,992,139,994.7,144.4,994.8z"/>
	<path class="st5" d="M66.7,958.3c-1.6,0-2.4,2-1.3,3.1c3.8,3.8,12.4,8.7,20.6,11.7c10.2,3.8,19.6,3.3,19.6,3.3s-6.2-7-16.1-11.6
		C81.6,961.1,72,958.4,66.7,958.3z"/>
	<path class="st5" d="M144.6,958.5c1.1-1.2,0.2-3.1-1.5-3c-5.4,0.5-14.7,3.8-22.3,8.1c-9.5,5.3-15.2,12.8-15.2,12.8
		s9.3-0.2,19.3-4.7C132.8,968.2,141,962.7,144.6,958.5z"/>
	<path class="st5" d="M66.7,994.6c-1,1.3-0.1,3.1,1.5,2.9c5.4-0.5,14.7-3.9,22.3-8.3c9.5-5.4,15.1-12.9,15.1-12.9s-9.3,0.2-19.3,4.8
		C78.4,984.9,70.2,990.5,66.7,994.6z"/>
	<path class="st5" d="M123.5,1015.6c1.2,1.1,3.1,0.2,3-1.5c-0.5-5.4-3.8-14.7-8.1-22.3c-5.3-9.5-12.8-15.2-12.8-15.2
		s0.2,9.3,4.7,19.3C113.9,1003.8,119.5,1012,123.5,1015.6z"/>
	<path class="st5" d="M87.5,937.6c-1.3-1-3.1-0.1-2.9,1.5c0.5,5.4,3.9,14.7,8.3,22.3c5.4,9.5,12.9,15.1,12.9,15.1s-0.2-9.3-4.8-19.3
		C97.2,949.3,91.6,941.1,87.5,937.6z"/>
	<path class="st6" d="M108,933.7c-0.6-1.5-2.7-1.5-3.4-0.1c-2.1,5-3.5,14.7-3.2,23.4c0.3,10.9,4.1,19.4,4.1,19.4s4.3-8.3,4.9-19.2
		C111,948.6,109.9,938.7,108,933.7z"/>
	<path class="st6" d="M103.2,1019.4c0.6,1.5,2.8,1.6,3.4,0.1c2.1-5,3.4-14.8,3.1-23.5c-0.3-10.9-4.2-19.4-4.2-19.4
		s-4.2,8.3-4.8,19.3C100.2,1004.5,101.3,1014.4,103.2,1019.4z"/>
	<path class="st6" d="M148.4,979c1.5-0.6,1.5-2.7,0.1-3.4c-5-2.1-14.7-3.5-23.4-3.2c-10.9,0.3-19.4,4.1-19.4,4.1s8.3,4.3,19.2,4.9
		C133.5,981.9,143.3,980.9,148.4,979z"/>
	<path class="st6" d="M62.8,974.2c-1.5,0.6-1.6,2.8-0.1,3.4c5,2.1,14.8,3.4,23.5,3.1c10.9-0.3,19.4-4.2,19.4-4.2s-8.3-4.2-19.3-4.8
		C77.6,971.1,67.7,972.2,62.8,974.2z"/>
	<path class="st6" d="M135,945.3c0.5-1.6-1-2.9-2.6-2.2c-4.8,2.4-12.2,9.1-17.6,15.9c-6.9,8.6-9.3,17.5-9.3,17.5s8.6-3.6,16.1-11.6
		C127.8,958.6,133.3,950.4,135,945.3z"/>
	<path class="st6" d="M76.2,1007.8c-0.5,1.6,1,2.9,2.6,2.1c4.7-2.5,12.2-9.2,17.5-16c6.8-8.6,9.2-17.6,9.2-17.6s-8.6,3.7-16,11.7
		C83.5,994.5,77.9,1002.7,76.2,1007.8z"/>
	<path class="st6" d="M136.8,1006c1.6,0.5,2.9-1,2.2-2.6c-2.4-4.8-9.1-12.2-15.9-17.6c-8.6-6.9-17.5-9.3-17.5-9.3s3.6,8.6,11.6,16.1
		C123.5,998.7,131.7,1004.2,136.8,1006z"/>
	<path class="st6" d="M74.3,947.1c-1.6-0.5-2.9,1-2.1,2.6c2.5,4.7,9.2,12.2,16,17.5c8.6,6.8,17.6,9.2,17.6,9.2s-3.7-8.6-11.7-16
		C87.6,954.4,79.3,948.9,74.3,947.1z"/>
	<circle class="st7" cx="106.9" cy="976.6" r="10.8"/>
</g>
<g>
	<g>
		
			<rect x="36.7" y="549.7" transform="matrix(3.465565e-03 -1 1 3.465565e-03 -513.3542 724.232)" class="st0" width="139.9" height="139.9"/>
		
			<rect x="56.3" y="569.2" transform="matrix(3.465565e-03 -1 1 3.465565e-03 -513.3051 724.382)" class="st1" width="101" height="101.1"/>
	</g>
	<g>
		<path class="st2" d="M149.3,589.2c2.6,0,5.3,1.9,7.4,4.3l-3.5,1L149.3,589.2z"/>
		<path class="st8" d="M155.7,593.8C155.7,593.8,155.6,593.8,155.7,593.8c-0.6-0.5-1.2-1-1.8-1.4c-0.2-0.1-0.4-0.3-0.6-0.4
			c0.3,0.1,0.5,0.2,0.7,0.3h0c0.6,0.2,1.1,0.5,1.6,0.9c-0.4-0.7-0.8-1.3-1.4-1.8c-1.3-1.1-3.1-1.6-4.9-2c-1.3-0.3-2.6-0.6-3.7-1
			c0.4,0.5,0.9,0.9,1.4,1.3c0,0,0.1,0.1,0.1,0.1c-0.1,0-0.2,0-0.3-0.1c-0.3-0.1-0.7-0.1-1-0.2c-0.1,0-0.3,0-0.4-0.1
			c-1.9-0.8-3.9-1.3-6-1.6c0.6,0.3,1.2,0.6,1.7,0.9c-1.4-0.2-2.9-0.3-4.3-0.3c1.3,0.5,2.6,0.9,4,1.3c-1.7,0-3.5,0.1-5.2,0
			c-1.9-0.2-3.6-0.6-5.4-1.2c1.6,1.1,3.2,1.8,5,2.2c0.3,0.1,0.6,0.1,0.9,0.2c-1.8,0.1-3.5,0.1-5.3-0.4c0.8,0.5,1.6,0.8,2.4,1.1
			c0,0-0.1,0-0.1,0c-1.7-0.3-3.4-0.9-5-1.9c0.7,0.8,1.5,1.4,2.4,1.9c-2-0.2-3.9-0.8-5.6-2c1.5,1.5,3.2,2.4,5.1,2.8c-0.5,0-1,0-1.5,0
			c-2.3,0-4.5-0.5-6.5-1.5c2.5,1.9,5.4,2.5,8.3,2.6c-0.3,0-0.7,0.1-1,0.1c-1-0.1-1.9-0.2-2.8-0.3c-1.7-0.3-3.3-0.7-5-1.4
			c1.5,1.1,3.1,1.9,5,2.4c0.5,0.1,1,0.3,1.5,0.4c-0.5,0-1.1-0.1-1.6-0.1c-2.6-0.3-5-1-7.2-2.3c1.6,1.4,3.5,2.3,5.4,2.8
			c-1.7-0.1-3.3-0.4-5-0.8c1.4,0.7,2.8,1.2,4.2,1.6c-2.4,0-4.7-0.1-6.9-1.4c0.7,0.7,1.4,1.3,2.3,1.7c-1.2-0.2-2.4-0.5-3.6-1
			c1.9,1.2,3.8,1.9,6,2.1c0.5,0,1,0.1,1.5,0.1c-0.3,0-0.7,0.1-1,0.1c-0.7,0.1-1.4,0.1-2,0.2c-0.3-0.1-0.7-0.1-1-0.2
			c-1.8-0.5-3.4-1.2-4.9-2.3c1,1.1,2.2,2,3.5,2.7c-0.3,0-0.6,0-0.9,0c-2.3,0-4.5-0.4-6.7-1.4c0.7,0.5,1.4,1,2.2,1.3
			c-1.8-0.1-3.6-0.3-5.4-0.4c2.3,0.6,4.5,1.2,6.8,1.5c0.2,0,0.4,0,0.6,0.1c-0.2,0-0.3,0-0.5,0c-1.8,0-3.4-0.2-5.2-0.5
			c1.4,0.6,2.9,1.1,4.4,1.4c-1.2,0-2.4-0.1-3.6-0.3c-0.9-0.2-1.8-0.4-2.7-0.7c0.9,0.5,1.8,0.9,2.8,1.2c0.5,0.2,1,0.3,1.5,0.4
			c-1.4,0-2.8-0.1-4.2-0.3c2.1,1.1,4.2,1.5,6.5,1.6c-0.7,0-1.5,0-2.2,0c-2.3-0.1-4.4-0.6-6.5-1.5c2.7,2,5.9,2.7,9.2,2.7
			c-0.2,0-0.4,0-0.6,0c-1.4,0.1-2.7,0-4-0.2c0.8,0.4,1.6,0.7,2.4,0.9c-2,0.1-3.9,0-5.8-0.8c2.2,2.1,5.3,2.3,8.2,2c0,0,0,0,0,0
			c0.3,0,0.5-0.1,0.8-0.1c1.4-0.2,2.7-0.5,4.1-0.7c0.4-0.1,0.8-0.1,1.3-0.1c1.4-0.1,2.7,0,4.1,0.2c-0.6-0.3-1.2-0.6-1.9-0.8
			c0.4,0,0.8,0,1.1,0c0.3,0,0.6,0,0.9,0c1,0.1,2,0.3,3.1,0.6c-1.2-0.8-2.4-1.3-3.9-1.6c-0.3-0.1-0.7-0.1-1.1-0.2c-0.2,0-0.3,0-0.5,0
			c2-0.4,4.1-0.7,6.1-0.8c0.9-0.1,1.8-0.1,2.7-0.1c0.4,0.1,0.8,0.3,1.3,0.5c-0.2-0.2-0.5-0.3-0.7-0.5c0.3,0,0.6,0,0.9,0.1
			c0.9,0.1,1.8,0.3,2.8,0.4c-0.9-0.4-1.9-0.7-2.9-1c-0.7-0.2-1.4-0.3-2.2-0.4c-0.1-0.1-0.3-0.1-0.4-0.2c0.3,0,0.7,0,1,0
			c2.3,0.1,4.5,0.5,6.6,1.3c-1.7-1-3.5-1.7-5.3-2c1.2-0.1,2.4-0.2,3.5-0.4c0.7,0.2,1.4,0.5,2,0.8c-0.4-0.3-0.9-0.6-1.3-0.9
			c0.8-0.1,1.6-0.2,2.4-0.3c-0.3,0-0.6-0.1-0.9-0.1c-0.5-0.3-1.1-0.6-1.6-0.8c0.5,0,1,0,1.5,0c2,0.1,4.2,0.1,6.1,0.6
			c0.3,0.1,0.5,0.1,0.8,0.2c0.4,0.2,0.7,0.4,1.1,0.6c-0.1-0.1-0.3-0.3-0.4-0.4c1.1,0.4,2.1,0.8,3.1,1.4c-1.3-1.2-2.6-2.1-4.3-2.7
			c-0.1,0-0.2-0.1-0.2-0.1c-0.4-0.4-0.8-0.7-1.3-1c-0.2-0.1-0.4-0.3-0.6-0.4c0.2,0,0.4,0,0.6,0c0.7,0.2,1.4,0.5,2.1,0.8
			c-0.4-0.3-0.7-0.5-1.1-0.7c0.6,0,1.3,0.1,1.9,0.2c1.5,0.2,2.9,0.6,4.3,1.2c0.2,0.1,0.4,0.2,0.5,0.2c0.1,0,0.1,0.1,0.2,0.1
			c0.1,0.1,0.3,0.1,0.4,0.2c0.6,0.3,1.1,0.6,1.7,1c-0.6-0.6-1.3-1.2-2-1.6c-0.1-0.1-0.2-0.1-0.3-0.2c0,0-0.1-0.1-0.1-0.1
			c-0.2-0.1-0.5-0.3-0.7-0.4c-1-0.5-2-0.9-3-1.2c0.9,0.1,1.7,0.2,2.6,0.4c0.8,0.1,1.5,0.2,2.3,0.3c0.5,0.1,1,0.2,1.5,0.2
			c-0.4-0.2-0.9-0.3-1.3-0.5h0c-1-0.4-1.9-0.7-2.9-1c-2.1-0.6-4.2-1.1-6.4-1.5c1.9,0,3.8,0.1,5.7,0.4c0.1,0.1,0.2,0.2,0.3,0.2
			c0-0.1-0.1-0.1-0.2-0.2c0,0,0.1,0,0.1,0c1.3,0.3,2.6,0.7,3.9,1.3c-1.1-1-2.4-1.7-3.7-2.1c-0.5-0.2-0.9-0.3-1.4-0.4c0,0,0,0,0,0
			c0.6,0,1.2,0,1.8,0.1c0.1,0,0.3,0,0.4,0.1c0.7,0.4,1.4,0.8,2,1.1l0,0c0,0,0,0,0.1,0c0.3,0.2,0.7,0.4,1,0.5c0.1,0,0.2,0.1,0.2,0.1
			c-0.2-0.2-0.4-0.4-0.6-0.7l0,0c-0.1-0.1-0.2-0.2-0.2-0.3c-0.1-0.1-0.2-0.2-0.3-0.3c0.1,0,0.2,0.1,0.2,0.1c0.1,0,0.2,0.1,0.3,0.1
			c0.4,0.2,0.8,0.3,1.1,0.5c0,0,0.1,0,0.1,0c0,0-0.1-0.1-0.1-0.1c0,0,0,0,0,0c-0.3-0.2-0.6-0.4-0.9-0.6c-0.1-0.1-0.3-0.2-0.4-0.3
			c0.1,0,0.1,0,0.2,0.1c-0.2-0.2-0.5-0.3-0.7-0.4c-0.3-0.2-0.6-0.3-0.9-0.5c-0.2-0.1-0.3-0.3-0.5-0.4c-0.1-0.1-0.1-0.1-0.2-0.2
			c-0.1,0-0.1-0.1-0.2-0.1c0.2,0,0.4,0.1,0.6,0.2c0,0,0,0,0,0c0.2,0,0.4,0.1,0.5,0.1c0.2,0,0.3,0.1,0.5,0.1c0.2,0.1,0.4,0.2,0.6,0.3
			c0.5,0.2,0.9,0.4,1.3,0.6h0c0.4,0.2,0.8,0.5,1.3,0.7c-0.3-0.3-0.7-0.6-1-0.9c0,0-0.1-0.1-0.1-0.1c0.1,0,0.1,0,0.2,0.1h0
			c0.8,0.3,1.5,0.6,2.3,1c0,0,0,0,0.1,0c0.1,0,0.2,0.1,0.3,0.1C155.8,593.9,155.7,593.8,155.7,593.8z M137.6,598.4
			c-0.8-0.1-1.6-0.1-2.4-0.2c-0.6-0.3-1.2-0.5-1.8-0.7c0.6,0,1.1,0.1,1.7,0.2c0.2,0.1,0.4,0.2,0.7,0.2c-0.1-0.1-0.2-0.1-0.2-0.2
			C136.2,597.9,136.9,598.1,137.6,598.4z M142.5,596.8c-0.1,0-0.1,0-0.2,0c-0.2-0.1-0.4-0.2-0.6-0.3
			C142,596.6,142.2,596.7,142.5,596.8z"/>
		<path class="st8" d="M78.4,607.6c-1.4-0.9-3-1.7-4.7-2.1c-0.7-0.2-1.5-0.3-2.2-0.4c-2.7-0.9-5.6-1.3-8.5-1.1
			c-3.2,0.2-6.1,1.3-9,2.5c-0.9,0.2-1.8,0.4-2.7,0.6c-1.7,0.3-3.4,0.7-5.2,0.8c-1.4,0-2.6-0.2-3.9-0.6c1,0.5,2.1,0.9,3.1,1.1
			c1.4,0.5,2.9,0.7,4.3,0.5c0.3,0.1,0.6,0.3,0.9,0.4c-0.2,0.1-0.4,0.1-0.6,0.2c-1.4,0.3-2.7,0.5-4.1,0.5c-0.2,0-0.4,0-0.6,0
			c0.1,0,0.1,0,0.2,0.1c-1.5,0-2.9-0.2-4.4-0.6c1.2,0.6,2.4,0.9,3.6,1.2c0.4,0.4,0.8,0.7,1.3,1c-1.8,0-3.5-0.4-5.2-1
			c2.3,1.4,4.7,1.9,7.1,1.9c0.4,0.2,0.9,0.3,1.4,0.5c-0.8,0.2-1.6,0.3-2.4,0.3c-1.3,0-2.5-0.2-3.7-0.6c1.2,0.6,2.5,1,3.7,1.1
			c-0.8,0-1.6,0-2.4-0.1c-1.1-0.2-2.1-0.5-3.2-1c1,0.6,2,1.2,3.2,1.5c1.7,0.5,3.4,0.6,5.2,0.4c0.2,0,0.4,0,0.6-0.1
			c2.1,0.5,4.2,0.5,6.4,0.2c2.9-0.5,5.8-1.6,8.5-2.7c2.7-1.1,5.4-2.3,8.3-2.7c1.6-0.3,3-0.2,4.1-0.1c0.8,0.1,1.4,0.2,1.8,0.3V608
			C78.8,607.8,78.6,607.7,78.4,607.6z M50.5,608.6c0.9-0.1,1.9-0.4,2.8-0.6c0,0,0,0,0,0c0.6-0.1,1.3-0.2,1.9-0.3
			c-1.2,0.4-2.4,0.7-3.6,1.1C51.3,608.8,50.9,608.7,50.5,608.6z M53.3,610.2c-0.2,0.1-0.5,0.1-0.7,0.2c-0.3,0-0.5,0-0.8,0
			C52.3,610.4,52.8,610.3,53.3,610.2z M49.2,611.2c-0.7,0.1-1.4,0.2-2.1,0.2c0,0,0,0,0,0c-0.7-0.2-1.4-0.6-2.1-1
			c1.5,0.2,3,0.2,4.5,0.1c0.2,0,0.3,0,0.5,0c0.3,0.1,0.7,0.2,1,0.3C50.4,611,49.8,611.1,49.2,611.2z M56.2,613.4
			c-1.7,0.5-3.4,0.8-5.1,0.9c1.4-0.3,2.8-0.7,4.2-1.1c1.4-0.2,2.7-0.5,4.1-0.8C58.4,612.7,57.3,613.1,56.2,613.4z"/>
		<path class="st8" d="M116.8,638.6l-7.7,0.1c0.3,0.8,0.9,1.6,1.7,2.5l6.7-1.7C117.5,639,117.4,638.6,116.8,638.6z"/>
		<path class="st9" d="M117.5,639.7C117.5,639.6,117.5,639.6,117.5,639.7l-6.7,1.6c1.4,1.4,3.6,2.8,6.2,3.8l2-2
			C117.9,642,117.6,641,117.5,639.7z"/>
		<path class="st9" d="M117,645c-0.7-0.6,0.9-2.8,1.8-3.9c0.3-0.3,0.8-0.4,1.2-0.2c2.4,1.7,9.1,0.8,14-0.4l-0.8,3.2
			C129.8,644.3,119.3,647,117,645z"/>
		<path class="st9" d="M127.5,619.3l-1,7.4c-0.2,1.5,1,1.9,1.8,3.1l5.5,13.5l2.7-1.6c0,0-1.4-20-1.4-20.1
			C135,616.3,128.2,614.5,127.5,619.3z"/>
		<path class="st9" d="M136,642.6c-1.2,1.5-3.1,2-4.2,1.1c-1.1-0.9-1-2.8,0.2-4.3c1.2-1.5,3.1-2,4.2-1.1
			C137.3,639.2,137.2,641.1,136,642.6z"/>
		<path class="st8" d="M99.3,647.8c-0.1,0.2-0.1,0.4-0.2,0.6c-0.2,0.5-0.4,1,0.2,1.3l7,3.2c0.1-0.9-0.2-2.1-0.8-3.5L99.3,647.8z"/>
		<path class="st9" d="M101.3,642.7l-1.9,0.5c0.5,1.3,0.3,3.3-0.1,4.6l6.2,1.5C104.6,647.2,103.1,644.7,101.3,642.7z"/>
		<path class="st9" d="M101.8,643.3c0.4,0.9-2,2.1-3.3,2.7c-0.4,0.2-0.9,0-1.1-0.4c-1.4-2.6-7.6-3.7-12.6-4.6l1.4-4.2
			C89.5,640,100.5,640.5,101.8,643.3z"/>
		<path class="st9" d="M97.3,616c0,1.1-0.1,2.2-0.2,3.1c-0.1,1.1-0.3,2.2-0.4,3.2c0,0.2-0.1,0.4-0.1,0.6c-0.2,0.7-0.3,1.4-0.5,2
			c-0.1,0.2-0.1,0.5-0.2,0.7c-0.7,2.1-1.7,3.9-2.7,5.5c-1.7,2.6-3.8,4.7-6,7.2c-2.2,1.1-3.4,0.6-4.3-1.5c1.1-1.4,2-2.8,2.7-4.2
			c0.8-1.6,1.1-3.3,0.9-4.9c-0.2-1.2-0.8-2.4-1.9-3.6c0.2-1.1,0.4-2.1,0.7-3c0.9-2.8,2.5-4.7,4.7-5.6
			C91.9,614.8,94.4,614.9,97.3,616z"/>
		<path class="st9" d="M88,637.6c0.3,1.7-0.6,3.4-2.1,3.7c-1.5,0.3-2.9-0.9-3.3-2.6c-0.3-1.7,0.6-3.4,2.1-3.7
			C86.2,634.7,87.7,635.9,88,637.6z"/>
		<path class="st2" d="M80.5,648.1L80.5,648.1c0,0.2,0,0.3,0,0.5c0,0,0,0,0,0c-0.2,1.8-0.6,3.7-1.1,5.4c-0.1,0.4-0.3,0.8-0.4,1.2
			l-3.6-4.9c0.6-0.3,1.4-0.8,2.1-1.5c0.2-0.2,0.3-0.3,0.5-0.5c0.4-0.4,0.7-0.9,0.9-1.3L80.5,648.1z"/>
		<path class="st8" d="M78.9,655.2c-0.6,1.7-1.4,3-2.2,3.6l-2.6-7.3c-0.2-0.6,0.2-0.8,0.8-1c0.1,0,0.3-0.1,0.4-0.2L78.9,655.2z"/>
		<path class="st8" d="M105,642.8c-0.1-0.6-0.3-1-0.9-0.9l-7.6,1.3c0.4,0.8,1.3,1.7,2.4,2.4l6.1-2.6C105,642.9,105,642.9,105,642.8z
			"/>
		<path class="st2" d="M107,646l-0.7,0.9l-1,1.3c0,0,0,0-0.1,0c-1.5-0.4-2.9-0.8-4.1-1.4c-0.8-0.4-1.5-0.8-2.2-1.2l6.1-2.6
			c0.2,0.8,0.4,1.5,0.9,2.1C106.2,645.3,106.5,645.7,107,646z"/>
		<path class="st2" d="M121.3,641.3l-0.2,1.7l0,0.5l-0.1,1.1c-0.2,0.1-0.5,0.2-0.9,0.3c-3.8,1.3-12.5,4.8-14.9,3.4c0,0,0,0,0,0
			c-0.3-0.2-0.3-0.7-0.1-1.3c0.2-0.6,0.5-1.3,0.8-1.9c0.2-0.3,0.4-0.7,0.5-0.9c0.2-0.4,0.7-0.5,1.1-0.3c2.1,1.1,6.8,0,11-1.4
			c0.7-0.2,1.4-0.5,2-0.8C120.9,641.5,121.1,641.4,121.3,641.3z"/>
		<path class="st2" d="M124.9,641c0,1-0.5,2.1-1.5,2.9c-1,0.8-2.2,1.1-3.2,0.9c-0.4-0.1-0.7-0.3-1-0.6c0,0-0.1-0.1-0.1-0.1
			c-0.4-0.5-0.5-1.2-0.4-1.8c0.1-0.8,0.7-1.7,1.5-2.4c0.3-0.3,0.7-0.5,1-0.6c1.1-0.5,2.4-0.5,3.1,0.2c0.1,0.1,0.2,0.1,0.2,0.2
			C124.7,640.1,124.8,640.5,124.9,641z"/>
		<path class="st2" d="M80.5,648.1L80.5,648.1c0,0.2,0,0.3,0,0.5c0,0,0,0,0,0c0,0.1,0,0.2-0.1,0.3c-0.2,0.5-1.2,0.5-2.3,0.2
			c-0.2-0.1-0.5-0.1-0.7-0.2c-0.5-0.1-0.9-0.3-1.2-0.4c-0.4-0.2-0.7-0.6-0.5-1c0.8-2.6-2.2-7.2-4.8-11.2c-0.2-0.3-0.4-0.7-0.7-1
			l1.5-0.7l0.6-0.3l1.9-0.9c0,0.5,0.1,1,0.3,1.6c0,0.2,0.1,0.4,0.2,0.5C76,639.6,80.4,645.3,80.5,648.1z"/>
		<path class="st2" d="M75,634.8c0,0.1-0.1,0.2-0.1,0.2c-0.1,0.1-0.2,0.3-0.3,0.4c-0.6,0.7-1.4,1.1-2.2,1.1c-0.5,0-1.1-0.1-1.5-0.4
			c0,0,0,0,0,0c-1.2-0.9-1.4-2.7-0.4-4.2c0.4-0.5,0.9-1,1.4-1.2c0.6-0.3,1.2-0.4,1.8-0.2c0.3,0.1,0.6,0.2,0.8,0.4
			c0.4,0.3,0.7,0.6,0.8,1C75.6,632.8,75.5,633.9,75,634.8z"/>
		<path class="st2" d="M136.9,616.8c0,1.2-0.1,2.5-0.5,3.7c-0.3,1-0.7,1.9-1.1,2.8c-0.5,1-1.2,1.9-2,2.7c0,0,0,0,0,0c0,0,0,0,0,0
			c-1.4,1.5-3.2,2.6-5.4,3.1c0,0,0,0,0,0c-0.4,0.1-0.8,0.2-1.2,0.2c-1.2,0.2-2.5,0.3-3.7,0.4h0c-10.6,0.9-20.4-0.2-26.6-4.6
			c-0.1-0.1-0.2-0.1-0.3-0.2c-0.3-0.2-0.6-0.5-0.9-0.7c-1-0.8-1.8-1.7-2.6-2.7c-0.4-0.5-0.7-1-1-1.6c-0.7-1.3-1.3-2.7-1.6-4.3
			c-0.2-1-0.4-2-0.5-3.2c0.1-3.7,1.7-6.3,4.5-7.7c0.1,0,0.3,0.1,0.4,0.1c4.8,1.2,8.6,1.3,14.3,0.7c1.8-0.3,3.7-0.6,5.5-0.9
			c0,0,0,0,0,0c1.8-0.3,3.6-0.7,5.3-1.3c1.1-0.4,2.1-0.8,3.2-1.3c0.6,0.3,1.3,0.7,1.9,1c4.5,2.6,8.4,5.3,10.7,9.6
			c0.6,1.1,1.2,2.4,1.6,3.8C136.9,616.6,136.9,616.7,136.9,616.8z"/>
		<path class="st9" d="M50.2,613.3c0.1,0,0.2,0,0.4-0.1c0,0-0.1,0-0.1,0c0,0,0,0,0,0C50.3,613.3,50.3,613.3,50.2,613.3z"/>
		<path class="st2" d="M156.1,600.8c-0.3,0.1-0.7,0.2-1,0.2c-0.5,0.1-0.9,0.3-1.4,0.4c-0.7,0.2-1.4,0.5-2,0.7
			c-9,3.7-12.7,11.1-14.8,14.6c-0.4,0.6-0.7,1.1-0.9,1.4c-0.2,0.2-0.4,0.4-0.5,0.5L119,603.8c0,0,0,0,0,0c0.1-0.2,0.3-0.3,0.5-0.5
			c4.8-4.7,18.1-11.4,28.9-11.5c0.3,0,0.7,0,1,0c0.2,0,0.3,0,0.5,0c0,0,0,0,0,0c0.2,0,0.3,0,0.5,0l0.1,0.1l0.6,0.9l0.4,0.7l0.1,0.2
			l0.2,0.3l0,0l0.3,0.5l0.3,0.5L156.1,600.8z"/>
		<path class="st2" d="M161.2,600.8c-0.2,0.3-0.4,0.6-0.6,0.8c-0.9,1-2.2,1.7-3.7,1.9c-2,0.3-3.9-0.3-5.1-1.5
			c-0.7-0.7-1.2-1.5-1.3-2.5c0-0.3-0.1-0.7,0-1c0-0.1,0-0.1,0-0.2c0-0.1,0-0.1,0-0.2c0,0,0,0,0,0c0-0.2,0.1-0.4,0.1-0.6
			c0-0.1,0-0.2,0.1-0.2c0,0,0-0.1,0-0.1c0.2-0.4,0.4-0.8,0.7-1.2c0.1-0.1,0.1-0.2,0.2-0.3h0c0.2-0.2,0.4-0.4,0.6-0.6
			c0.1-0.1,0.2-0.2,0.3-0.3c0.4-0.3,0.8-0.5,1.2-0.7c0.5-0.2,1-0.4,1.6-0.5c0,0,0,0,0,0c0.1,0,0.2,0,0.3,0c0,0,0.1,0,0.1,0
			c3-0.3,5.7,1.5,6.1,4C162,598.9,161.7,599.9,161.2,600.8z"/>
		<path class="st2" d="M170.9,600.7c0,0.5-0.7,1.2-0.7,1.2l-1-0.3l-1.6-0.5l1.9,1.5c-1.3,0.7-2.6,0.4-4-0.8c0,0-3.5-0.1-5-0.1
			c-0.4,0-0.6,0-0.7,0l-6.2-0.3l-2-0.1l-1.3-2.8l0,0l-0.5-1.1l-0.3-0.7l-0.4-0.9l-0.4-0.9l-0.5-1l-0.2-0.5c0.1-0.1,0.2-0.2,0.4-0.3
			c0.1-0.1,0.2-0.2,0.3-0.3c0.1-0.1,0.2-0.2,0.3-0.3c0.1,0,0.1-0.1,0.2-0.1c0.2-0.1,0.4-0.3,0.6-0.4c0.1-0.1,0.2-0.1,0.3-0.2
			c0,0,0,0,0,0c0.3-0.2,0.6-0.3,1-0.4c0.5-0.2,1.1-0.3,1.7-0.3c0.4,0,0.9,0.1,1.3,0.2c0.1,0,0.3,0.1,0.4,0.1c0.1,0,0.2,0.1,0.3,0.1
			c3.9,1,10.4,2.7,12.9,4c0.9,0.5,3,1.2,3.4,2.2C171.2,598.1,171,599.9,170.9,600.7z"/>
		<path class="st2" d="M146.1,589.8c2.5-0.7,5.6,0.6,8.2,2.4l-3.1,1.8L146.1,589.8z"/>
		<path class="st10" d="M127.9,620.3v10.8h-5.2l0.3-1.4c-10.6,0.9-20.4-0.2-26.6-4.6c-0.1-0.1-0.2-0.1-0.3-0.2
			c-0.3-0.2-0.6-0.5-0.9-0.7c-1-0.8-1.8-1.7-2.6-2.7v-1.2c1.4,0.8,2.8,1.5,4.1,2.1c0.1,0,0.2,0.1,0.3,0.1c0.5,0.2,0.9,0.4,1.4,0.6
			c8.8,3.6,16.8,3.3,24.2,0.1c0.3-0.1,0.5-0.2,0.8-0.4c0.3-0.1,0.5-0.2,0.8-0.4c1.1-0.5,2.2-1.2,3.2-1.8
			C127.5,620.5,127.7,620.4,127.9,620.3z"/>
		<path class="st2" d="M103.5,618c0.1,0.1-3.1,3.1-5.1,5.1c-1.1,1-1.8,1.8-1.8,1.9c-0.1,0.1-0.1,0.1-0.2,0.2
			c-0.2,0.2-0.3,0.3-0.5,0.5c-1.1,1-2.2,2-3.3,2.8c-2.5,2-4.8,3.3-7.1,4.2c-3.5,1.5-6.8,1.9-10.5,2.2c-0.2,0-0.4,0-0.6,0
			c-0.2,0-0.5,0-0.7,0c-0.6-0.2-1.1-0.5-1.5-0.8c-0.2-0.1-0.3-0.3-0.5-0.5c-0.5-0.7-0.5-1.7,0-2.9c0.6-0.1,1.2-0.1,1.8-0.2
			c3.2-0.5,5.9-1.6,7.3-3.9c0.2-0.4,0.5-0.8,0.6-1.3c0.2-0.7,0.4-1.4,0.4-2.2c1.1-0.8,2.2-1.5,3.2-2c2.3-1.2,4.5-1.7,6.3-1.2
			c0.7,0.2,3.1-0.2,5.6-0.7c0.5-0.1,1.1-0.2,1.6-0.3C101.2,618.4,103.4,617.9,103.5,618z"/>
		<path class="st2" d="M99.3,616c-0.4,3.2-1.2,5.4-2.7,7c-0.2,0.2-0.5,0.5-0.7,0.7c-0.2,0.2-0.5,0.4-0.7,0.6
			c-2.1,1.5-4.9,2.4-8.8,3.5c-0.4,0.1-0.8,0.2-1.2,0.4c-0.8,0.2-1.5,0.2-2.3-0.2c-0.6-0.3-1.3-0.7-1.9-1.3c-1.3-1.3-2.6-3.3-3.6-5.9
			c-0.4-0.9-0.7-1.8-1-2.8c-1.1-3.5-0.6-6.5,0.9-8.9c0.3-0.5,0.7-1,1.2-1.5c2.6-2.6,6.7-4,11.8-3.7c1.6,0.1,2.9,0.4,4.1,0.9
			C98.2,606.4,99.9,610.1,99.3,616z"/>
		<path class="st10" d="M83.7,626.8c-0.3,0.4-0.6,0.8-0.9,1.2c-1.8,2.1-4.4,3.5-7.1,3.9c-0.2,0-0.3,0-0.5,0.1
			c-1.4,0.2-2.9,0.4-3.5,1.6c0,0.1,0,0.1-0.1,0.2c-0.1,0.2-0.1,0.5-0.1,0.8c0,0.7,0.3,1.4,0.7,2.1c0.1,0.2,0.2,0.4,0.4,0.6
			c2.2,3.5,3.9,7.3,5.2,11.2c0.1,0.2,0.1,0.5,0.2,0.7c0.5,1.6,0.9,3.3,1.3,4.9c-0.1,0.4-0.3,0.8-0.4,1.2c-0.6,1.7-1.4,3-2.2,3.6
			l-2.6-7.3c-0.2-0.6,0.2-0.8,0.8-1c0.1,0,0.3-0.1,0.4-0.2c0.6-0.3,1.4-0.8,2.1-1.5c-0.5-0.1-0.9-0.3-1.2-0.4
			c-0.4-0.2-0.7-0.6-0.5-1c0.8-2.6-2.2-7.2-4.8-11.2c-1.2-0.9-1.4-2.7-0.4-4.2c0.4-0.5,0.9-1,1.4-1.2c0.6-0.3,1.2-0.4,1.8-0.2
			c3.2-0.5,5.9-1.6,7.3-3.9c-1.3-1.3-2.6-3.3-3.6-5.9c1.2,1.7,2.6,3.3,4.2,4.6C82.2,625.9,83,626.4,83.7,626.8z"/>
		<path class="st10" d="M84.8,625.4c-4.1-3.2-6.8-8-7.3-13.1c-0.6,2.7-0.2,5.6,1.2,8C79.9,622.6,82.2,624.5,84.8,625.4z"/>
		<path class="st2" d="M133.2,626C133.2,626,133.2,626,133.2,626C133.2,626,133.2,626,133.2,626c0,0-0.1,0.2-0.3,0.4c0,0,0,0,0,0
			c-0.6,1-1.9,3.4-3.5,6.2c-1.6,2.9-3.4,6.1-4.6,8.3c-0.9,1.6-1.5,2.6-1.5,2.6l-2.3-0.1l-0.6,0l-0.2,0l0.4-1.9l0.4-2.2l1.6-8.2
			l0.3-1.4h0l0.1-0.7c-1.1-2-1-4.1-0.6-5.9c0.7-2.6,2.4-4.6,2.4-4.6c0.9-0.9,2-1.2,3.3-1C131.6,618.3,135.3,622.6,133.2,626z"/>
		<path class="st10" d="M124.7,628.1c-0.9-1.1-1.5-2.5-1.5-3.9c0-1.4,0.5-2.8,1.4-3.9c-1,1.9-0.4,4.5,1.3,5.9
			C125.5,626.8,125.1,627.4,124.7,628.1z"/>
		<path class="st10" d="M133,626.5c-1.1,2-5.7,10.2-8.1,14.5c0,1-0.5,2.1-1.5,2.9c-1,0.8-2.2,1.1-3.2,0.9
			c-3.8,1.3-12.5,4.8-14.9,3.4c0,0,0,0,0,0c-1.5-0.4-2.9-0.8-4.1-1.4c1.3,0.1,2.7,0.1,4,0.1c0.4,0,0.8,0,1.2,0
			c2.4-0.1,4.7-0.3,7-0.8c2-0.4,4-0.9,5.8-1.8c0.5-0.2,0.9-0.5,1.4-0.8c0.1,0,0.1-0.1,0.2-0.2c0.1-0.1,0.3-0.2,0.4-0.3
			c1.2-1,2.2-2.2,3-3.5c1.1-1.7,2-3.5,2.8-5.3C128.5,631.3,130.3,628.2,133,626.5z"/>
		<path class="st10" d="M169.6,602.6c-1.3,0.7-2.6,0.4-4-0.8c0,0-3.5-0.1-5-0.1c-0.9,1-2.2,1.7-3.7,1.9c-2,0.3-3.9-0.3-5.1-1.5
			c-9,3.7-12.7,11.1-14.8,14.6c0,1.2-0.1,2.5-0.5,3.7c-0.1-0.8-0.2-1.6-0.5-2.3c-0.6-1.8-1.8-3.3-3.3-4.3c1-0.2,1.9-0.6,2.7-1.1
			c1.1-0.7,2.1-1.6,3.1-2.4c3.1-2.7,6.2-5.4,9.2-8c0.8-0.7,1.6-1.4,2.2-2.4c0.2-0.4,0.4-0.8,0.5-1.3c0,0,0-0.1,0-0.1
			c0-0.1,0-0.2,0-0.2c0,0,0,0,0,0c0-0.2,0-0.4,0-0.7c0-0.2-0.1-0.4-0.2-0.6c0-0.1-0.1-0.1-0.1-0.2c0.1,0.1,0.2,0.2,0.2,0.3
			c0.1,0.1,0.2,0.2,0.3,0.3c0.1,0.2,0.2,0.3,0.4,0.5c1.3,1.6,2.3,2.7,4.1,3.1c0.1,0,0.2,0,0.3,0c1.9,0.3,3.9,0,5.8-0.2
			c0.4-0.1,0.9-0.1,1.3-0.2c2.3-0.2,4.8-0.2,6.8,0.9l-1.6-0.5L169.6,602.6z"/>
		<path class="st9" d="M169.3,597.7c0.4-0.5,0.9-0.5,1,0.2c0.1,0.6-0.1,1.2-0.4,1.7C169.2,599.1,168.9,598.5,169.3,597.7z"/>
		<path class="st9" d="M157.8,593.9c0.2,0,0.4,0.1,0.6,0.1l-0.3-0.6c-1.2-0.2-2.1,0.1-2.9,1c0.4-0.2,0.9-0.3,1.3-0.4
			c-0.2,0.2-0.3,0.4-0.3,0.6c0,0.4,0.5,0.7,1,0.7s0.9-0.4,0.9-0.8C158.1,594.2,158,594,157.8,593.9z"/>
		<path class="st9" d="M151.8,591.8c-1.6-0.8-3.3-1.4-5.1-1.8c0.7,0.6,1.5,1.3,2.4,1.6C150,591.9,150.9,591.8,151.8,591.8z"/>
	</g>
</g>
<path class="st11" d="M253,605.4c-0.5,0.7-1.2,1.1-2.2,1.3c-0.3,0.1-0.5-1.9-0.8-2.3c0,0-0.1-0.1-0.1-0.1c-0.2,0-0.5,2.5-0.7,2.5
	c-3.7,0.6-6-1.6-5-5.7c0.2-0.7,0.5-1.6,0.9-2.6c0,0,0,0,0,0c-0.1,0.4-0.3,0.7-0.3,1.1c0,0.4,0.4,0.8,0.7,0.6
	c0.1-0.1,0.2-0.2,0.3-0.3c0.7-1,2.3-2,2.8-1.7c0.4,0.3,1,0.5,1.2,1c0.2,0.3,0.2,0.7,0.3,1c0.2,0.7,0.5,1.4,0.9,2
	c0.4,0.6,0.9,1.2,1.3,1.9C252.6,604.7,252.8,605,253,605.4z"/>
<path class="st12" d="M246.2,602.3c-0.6-0.8-1.4-0.8-1.6,0.3c-0.2,1,0.1,1.9,0.6,2.7C246.1,604.8,246.5,603.9,246.2,602.3z"/>
<path class="st12" d="M250.7,591.2c-0.2,0-0.4,0.1-0.6,0.1l0.3-0.6c1.2-0.2,2,0.1,2.8,0.9c-0.4-0.2-0.8-0.3-1.2-0.4
	c0.2,0.2,0.3,0.4,0.3,0.6c0,0.4-0.5,0.7-1,0.7c-0.5,0-0.9-0.4-0.9-0.8C250.4,591.5,250.5,591.4,250.7,591.2z"/>
<g>
	
		<rect x="230" y="549.7" transform="matrix(3.465565e-03 -1 1 3.465565e-03 -320.7984 917.4564)" class="st0" width="139.9" height="139.9"/>
	
		<rect x="249.5" y="569.2" transform="matrix(3.465565e-03 -1 1 3.465565e-03 -320.7492 917.6063)" class="st13" width="101" height="101.1"/>
	<path class="st14" d="M340.4,645.4c-0.5-0.3-0.8-0.9-1.2-1.2c-0.1,0.7,0,1.4-0.5,2.1c-0.8-0.7-1-1.7-1.7-2.4
		c-0.5,0.9-0.3,1.8-0.9,2.6c-0.9-1.1-1.1-2.5-1.9-3.6c-0.6,0.4-0.7,0.9-1,1.4c-0.6-0.5-0.8-1.3-1-1.9c-0.7,0.7-0.7,1.8-1.8,2.3
		c-0.3-0.3-0.4-0.7-0.4-1.1c-0.2,0.1-0.3,0.2-0.5,0.3c-0.4,0.3-0.7,0.8-1.1,1.1c-0.1-0.1-0.2-0.2-0.2-0.3v0c-0.8-1.2-1.1-2.6-1.4-4
		c-0.1-0.5-0.2-0.9-0.3-1.3c0-0.1,0-0.1,0-0.2c-0.5-1.8-0.9-3.5-1.1-5.3c0-0.2-0.1-0.4-0.1-0.7c-0.5-4.1-1.3-9.9-1-14
		c0-0.3,0-0.5,0.1-0.8c0.4-4,2-7.9,2.7-11.8c0.3-1.5,0.7-3.7-0.1-5.2c-0.3-0.5-3.9-3.3-2.1-3.3c4.6,0,7.2,1.6,10,4.3
		c2.9,2.8,3.6,5.6,3.6,9.2c0,3,0.1,6,0.2,8.9c0,0,0,0,0,0c0,0.2,0,0.4,0,0.6c0.2,2.5-0.1,5,0.3,7.5c0.1,0.7,0.3,1.4,0.6,2.1
		c-0.3-0.4-0.9-0.8-1.2-1.1c0.1,2.3,1,7,1.8,9.3c-0.2-0.1-0.5-0.3-0.6-0.4c-0.2-0.1-0.3-0.3-0.5-0.4c-0.2,1.6,0.8,2.8,1,4.2
		c-0.2-0.1-0.4-0.2-0.5-0.3C339.3,643.1,339.8,644.1,340.4,645.4z"/>
	<path class="st15" d="M304.2,618.2c3.8,9.9,11.6,10.6,16.1,20.8l4.7-4.6c-2.5-6.7-1-15.5,0-23.7c-1.7-4.3-4.8-6.5-9.7-6
		C305.8,606.4,305.2,611.7,304.2,618.2z"/>
	<path class="st15" d="M327.8,636c1.1,2.1-2.4,7.7-4.3,6.1c-1.2-1.1-3.8-2.4-4.6-6.4c-0.5-2.3,1.5-4.5,3.9-3.6
		C325.4,633.1,326.8,634,327.8,636z"/>
	<polygon class="st16" points="317.3,659.4 327.3,659.4 327,657.6 320.5,654.9 	"/>
	<path class="st15" d="M329.5,654.3l-2.3-15.3l-6.3,0.9c1,4.9,1.7,9.4,0.7,13.3l-1.2,1.7l6.6,2.7l-0.1-0.8L329.5,654.3z"/>
	<path class="st17" d="M340.4,645.4c-0.5-0.3-0.8-0.9-1.2-1.2c-0.1,0.7,0,1.4-0.5,2.1c-0.8-0.7-1-1.7-1.7-2.4
		c-0.5,0.9-0.3,1.8-0.9,2.6c-0.9-1.1-1.1-2.5-1.9-3.6c-0.6,0.4-0.7,0.9-1,1.4c-0.6-0.5-0.8-1.3-1-1.9c-0.7,0.7-0.7,1.8-1.8,2.3
		c-0.3-0.3-0.4-0.7-0.4-1.1c-0.2,0.1-0.3,0.2-0.5,0.3c-0.4-0.8-0.6-1.7-0.7-2.6c-0.3-1.8-0.2-3.6,0-5.4c0.5-4.7,1.5-9.4,3-13.9
		c-0.5,6.2-1.1,12.6,0.4,18.7c0.3-0.4,0.6-0.7,0.9-1.1c0.4,0.9,1.1,1.7,1.9,2.3c-1.9-7-2.1-14.4-0.8-21.5c0.2,4.4,0.8,8.7,1.8,13
		c0.1-0.6,0.2-1.2,0.3-1.9c0.3,1.3,0.7,2.7,1,4c0.1-1.6,0.1-3.2,0.2-4.8c0.7,2.5,1.4,4.9,2,7.4c-0.2-0.1-0.3-0.3-0.5-0.4
		c-0.2,1.6,0.8,2.8,1,4.2c-0.2-0.1-0.4-0.2-0.5-0.3C339.3,643.1,339.8,644.1,340.4,645.4z"/>
	<path class="st17" d="M339,628.4c-1.1-1-2-2.3-2.5-3.6c-0.8-2-1-4.2-1.3-6.3c0.1,0.9,0.4,1.7,0.8,2.5c1-5.4,0.1-11.2-2.5-16
		c2.1,1.3,3.1,3.9,3.4,6.4c0.4,2.5,0.3,5,1,7.4c0.2,0.6,0.4,1.1,0.6,1.6c0,0,0,0,0,0c0,0.2,0,0.4,0,0.6
		C338.9,623.5,338.6,626,339,628.4z"/>
	<path class="st15" d="M327.4,640.4c0.2,2.9,3.9,5.3,5.6,7.5c-0.5-0.2-1.1-0.6-1.6-0.7c0.4,1.8,2.1,2.8,2.9,4.4c0,0,0,0,0,0
		c-0.6-0.3-1.3-0.5-1.9-0.7c0.7,1.1,1.4,2.1,2,3.2c-0.6,0-1.1-0.2-1.7-0.2c0.8,0.8,1.2,2,1.9,2.9c-1.3-0.1-2.8,0-4.2-0.2
		c-0.7-0.1-1.5-0.4-2.1-0.7c-0.8-0.4-0.9-0.6-1.1-1.5c-0.5-3.8,0-7.8,0-11.6C327.3,641.9,327.3,641.4,327.4,640.4z"/>
	<polygon class="st16" points="270.8,655 267.5,659.4 277.4,659.4 277.4,657.6 	"/>
	<path class="st15" d="M277.3,656.7l0.6-4.2l-5.2-1.2c0,0.1-0.3,1.4-0.3,1.6l-1.6,2.1l6.5,2.6L277.3,656.7z"/>
	<path class="st18" d="M282.1,621.9c-0.2,2-1.1,3.9-2.3,5.2c0,0-0.1,0.1-0.1,0.1c0,0-0.1,0.1-0.1,0.1c-0.2,0.2-0.3,0.3-0.5,0.4
		c-1.2,0.9-2.5,1.5-4,1.5c-0.2,0-0.4,0-0.6,0c-0.2,0-0.3,0-0.5-0.1c-0.3-0.1-0.6-0.1-0.8-0.2c-0.2-0.1-0.4-0.2-0.5-0.2h0
		c-0.7-0.4-1.4-0.9-1.9-1.6c-1-1.3-1.5-3.1-1.4-5c0,0,0-0.1,0-0.1c0.1-1.5,0.7-2.9,1.5-4.1c0.2-0.3,0.4-0.5,0.6-0.8
		c1.3-1.5,3.1-2.4,5-2.4c0.9,0,1.7,0.2,2.4,0.6c1.3,0.7,2.3,1.8,2.9,3.3C282,619.5,282.2,620.6,282.1,621.9z"/>
	<path class="st15" d="M279.2,639c-0.2,2.3-2,4.2-4.1,4.2c-2,0-3.5-1.9-3.3-4.2c0.2-2.3,2-4.2,4.1-4.2
		C277.9,634.7,279.4,636.6,279.2,639z"/>
	<polygon class="st15" points="279.7,627 279.6,627.1 279.6,627.3 279.6,627.8 278.9,633.2 278.6,636.2 278.4,637.6 278.3,638.1 
		276.3,638.1 272.9,638.1 272.6,638.1 272.4,636.9 271,628.9 270.7,627 270.5,625.6 271.7,625.8 273.8,626.1 277.1,626.6 	"/>
	<polygon class="st15" points="277.9,653 272.7,653 272.7,641.3 278.4,640.9 	"/>
	<path class="st15" d="M275.9,655c0,0.8,2,1.2,2.6,1.5c0.6,0.3,1.4,0.6,2.1,0.7c-0.4-0.7-0.9-1.3-1.3-2c0.7,0.1,1.3,0.4,1.9,0.5
		c-0.6-1.3-1.7-2.4-2-3.9c0.4,0.3,1,0.5,1.5,0.6c-0.4-1.1-1.2-2.2-1.7-3.3c0.6,0.4,1.3,0.6,1.9,0.8c-0.7-1.1-1.4-2.1-2.1-3
		c-0.8-1.1-1.3-2.4-2.1-3.4c-0.1,1,0.1,2,0,3c-0.1,1.6-0.4,3.2-0.4,4.8C276.3,652,275.3,654.6,275.9,655z"/>
	<path class="st18" d="M253.6,585.3l-1.4-6.5c1.9,1.2,3.6,3.2,5.2,6.1L253.6,585.3z"/>
	<path class="st5" d="M332.9,608.7c0,2.6-0.4,4.4-1.2,5.8c0,0,0,0,0,0c-0.6,1-1.3,1.7-2.2,2.2c-0.8,0.5-1.8,0.8-2.9,1.1h0
		c-2.3,0.6-5.2,1-8.4,1.8c-0.5,0.1-1,0.3-1.4,0.4c-0.9,0.3-1.9,0.6-2.9,1c-0.6,0.2-1.2,0.5-1.8,0.8h0c-0.2,0.1-0.3,0.2-0.5,0.2
		c-0.5,0.2-1,0.5-1.5,0.8c-0.4,0.2-0.7,0.4-1.1,0.7c-1.2,0.7-2.5,1.4-3.9,1.9c-6.3,2.5-14.4,3.3-21.4,2.4h0c-0.1,0-0.2,0-0.2,0
		c-1.2-0.2-2.4-0.4-3.5-0.6h0c-0.1,0-0.1,0-0.2,0c0,0-0.1,0-0.1,0c-0.8-0.2-1.7-0.4-2.4-0.7c-1.1-0.4-2.2-0.8-3.2-1.3
		c-0.6-0.3-1.1-0.6-1.6-0.9c-0.3-0.2-0.5-0.3-0.7-0.5c-0.9-0.6-1.6-1.3-2.2-2c-1-1.1-1.6-2.4-1.9-3.8c-0.4-2-0.5-3.9-0.4-5.8
		c0.1-1.7,0.4-3.3,0.9-4.8c0.5-1.6,1.3-3.2,2.2-4.5c0.1-0.2,0.3-0.4,0.5-0.7v0c0.3-0.4,0.6-0.8,0.9-1.1c0.7-0.8,1.4-1.6,2.2-2.3
		c2.2-2,4.9-3.4,7.8-4.4c1.4,0.5,2.7,1,4.1,1.4h0c0.5,0.2,1,0.3,1.5,0.4c0.6,0.2,1.3,0.3,1.9,0.5c2.5,0.6,5,1.1,7.2,1.4c0,0,0,0,0,0
		c2.3,0.3,4.5,0.4,6.3,0.3c0.3,0,0.6,0,0.9-0.1c6.5-0.5,11-2.8,14.9-2.8c5.7,0,9.4,2.6,11.7,5.9c0.3,0.4,0.6,0.9,0.8,1.3
		c0.7,1.2,1.2,2.5,1.6,3.7C332.7,607.4,332.8,608.1,332.9,608.7z"/>
	<path class="st5" d="M332.9,633.9l-1.3,1.2l-1.3,1.2l-0.9,0.8l-1.4,1.3c-0.4-0.6-0.7-1.3-1.2-1.8c-0.2-0.3-0.4-0.5-0.6-0.8
		c-1.4-1.7-3-3-4.7-4.3c-3.5-2.5-7.3-4.5-10.4-7.4c-0.4-0.4-0.8-0.8-1.2-1.3c-0.5-0.6-1-1.2-1.4-1.9c-0.5-0.8-0.9-1.6-1.3-2.5
		c0-0.1-0.1-0.2-0.1-0.3c0-0.3,0.1-0.7,0.2-1c0.9-4.2,3.6-7.9,8.2-10.2c2-1,4.3-1.7,7-2.2c1.3-0.1,2.4-0.1,3.4,0.1
		c2,0.4,3.6,1.5,4.8,3.2c0,0,0.1,0.1,0.1,0.1c0.5,0.7,1,1.6,1.4,2.6c-0.2,1.2-0.3,2.5-0.5,3.7c0,0,0,0,0,0c-0.9,6.5-1.9,13,0.5,18.1
		c0,0.1,0,0.1,0.1,0.2C332.4,633.2,332.7,633.6,332.9,633.9z"/>
	<path class="st5" d="M334.7,636.4c0,0.7-0.2,1.5-0.5,2.3v0c-0.3,1-0.9,1.9-1.4,2.5c-0.1,0.1-0.3,0.3-0.4,0.4
		c-0.4,0.4-0.9,0.5-1.3,0.4c-0.1,0-0.1,0-0.2-0.1c-0.1,0-0.2-0.1-0.3-0.2c-0.6-0.5-1.5-1.1-2.3-1.9c0,0,0,0,0,0
		c-0.7-0.7-1.3-1.6-1.8-2.8c-0.1-0.3-0.2-0.7-0.3-1.1c0-0.2-0.1-0.4-0.1-0.6c-0.2-1,0.1-1.9,0.6-2.7c0.4-0.6,1-1,1.8-1.1
		c0.5-0.1,1,0,1.5,0.2c0.9,0.4,1.6,0.7,2.2,1c1.1,0.7,1.8,1.4,2.3,2.6C334.7,635.6,334.7,636,334.7,636.4z"/>
	<polygon class="st14" points="334.5,659.4 324.5,659.4 327.1,655.7 329.9,656.5 334.3,657.8 	"/>
	<path class="st5" d="M334.9,656.1l-0.8,0.8l0.1,0.9l-4.4-1.3l-2.8-0.8l0.9-1.3l0.9-1.3c0.9-3.7,1.4-8.8-0.5-13.4c0,0,0,0,0,0
		c-0.1-0.3-0.2-0.6-0.4-0.8l2.1-0.4l0.8-0.1l3.1-0.6l0.1,0.9v0l0.9,5.7l1.6,9.9L334.9,656.1z"/>
	<path class="st5" d="M282.9,656.8l0.2-4l-5.3-1.1c0,0.1-0.2,1.4-0.2,1.5l-1.4,2l6.8,2.5L282.9,656.8z"/>
	<polygon class="st14" points="276.2,655.1 273.3,659.4 283.2,659.4 283,657.6 	"/>
	<path class="st5" d="M332.5,639.9c0.2,2.9,3.9,5.3,5.6,7.5c-0.5-0.2-1.1-0.6-1.6-0.7c0.4,1.8,2.1,2.8,2.9,4.4c0,0,0,0,0,0
		c-0.6-0.3-1.3-0.5-1.9-0.7c0.7,1.1,1.4,2.1,2,3.2c-0.6,0-1.1-0.2-1.7-0.2c0.8,0.8,1.2,2,1.9,2.9c-1.3-0.1-2.8,0-4.2-0.2
		c-0.7-0.1-1.5-0.4-2.1-0.7c-0.8-0.4-0.9-0.6-1.1-1.5c-0.5-3.8,0-7.8,0-11.6C332.4,641.4,332.5,640.9,332.5,639.9z"/>
	<path class="st5" d="M284.3,624.2c0,1.2-0.3,2.5-0.8,3.8h0c-0.2,0.7-0.6,1.3-0.9,1.9v0c0,0,0,0.1-0.1,0.1c-0.9,1.6-2.2,2.8-3.7,3.2
		c-0.3,0.1-0.7,0.1-1,0.1c-1,0-1.9-0.4-2.7-1c-0.2-0.2-0.4-0.4-0.6-0.6c-0.7-0.7-1.2-1.5-1.7-2.4v0c-0.1-0.2-0.2-0.5-0.3-0.7h0
		c-0.4-0.9-0.7-1.9-0.9-2.8c-0.1-0.5-0.1-1.1-0.1-1.6c0-0.1,0-0.1,0-0.2c0-1.2,0.3-2.3,0.8-3.3c0.1-0.2,0.2-0.3,0.3-0.5
		c1.2-1.8,3.1-3,5.3-3c0.2,0,0.4,0,0.6,0c1.2,0.1,2.2,0.6,3.1,1.3C283.3,619.8,284.3,621.8,284.3,624.2z"/>
	<path class="st5" d="M283.1,639.8c0,0.8-0.2,1.5-0.6,2.2c-0.5,1-1.4,1.6-2.5,1.8c-0.2,0-0.4,0.1-0.6,0.1c-0.9,0-1.8-0.4-2.4-1
		c-0.8-0.7-1.3-1.8-1.3-3.1c0-0.7,0.2-1.4,0.5-2c0.4-0.7,0.9-1.3,1.6-1.7c0.5-0.2,1-0.4,1.6-0.4c1.2,0,2.2,0.6,2.9,1.5
		C282.8,637.9,283.1,638.8,283.1,639.8z"/>
	<polygon class="st5" points="282.7,628.2 282.6,629.9 282.6,629.9 282.6,630 282.3,637.2 282.2,638.9 279.2,639 278.4,639 
		276.5,639 276.3,638.1 276.3,638.1 276.2,637.8 275.3,634.4 275.1,633.7 274.6,631.7 273.9,629.1 273.6,627.6 273.5,627.2 
		273.4,626.9 273.7,626.9 279,627.7 279.6,627.8 279.6,627.8 280,627.8 	"/>
	<polygon class="st5" points="283.1,653.3 278,653.3 277.7,649.9 277,642.9 276.9,642.1 278.7,641.9 282.5,641.6 282.5,642 
		282.8,646.6 	"/>
	<path class="st5" d="M281.3,655.2c0.1,0.8,2.1,1.2,2.7,1.5c0.7,0.3,1.4,0.6,2.1,0.7c-0.5-0.6-1-1.3-1.5-1.9c0.7,0,1.3,0.4,2,0.4
		c-0.7-1.3-1.9-2.3-2.4-3.8c0.5,0.3,1,0.5,1.5,0.6c-0.5-1.1-1.4-2.1-2-3.2c0.7,0.3,1.4,0.5,2,0.8c-0.8-1-1.6-2-2.4-2.9
		c-0.9-1-1.5-2.3-2.4-3.3c-0.1,1,0.2,1.9,0.2,2.9c0,1.5-0.1,3.1,0.1,4.6C281.4,652.3,280.7,654.8,281.3,655.2z"/>
	<path class="st5" d="M285.5,596L285.5,596L285.5,596l-7.3,7.9l-0.2,0.2l-1.2,1.3c0,0,0,0,0,0l-1,1l-0.4,0.4l-0.7,0.7l-0.7,0.8
		l-1.7,1.9l-1.2,1.2l-3.7,3.9c-0.1-1-0.2-2-0.5-3.1c-1-4-3.4-8.3-6.2-12.8c-0.4-0.6-0.8-1.2-1.1-1.8c0,0,0,0,0,0
		c-0.6-0.9-1.2-1.8-1.7-2.7c-1.3-2-2.6-4-3.8-6c-0.4-0.7-0.8-1.4-1.3-2.1c0,0,0,0,0,0c0,0,0-0.1,0-0.1c-0.2-0.3-0.4-0.6-0.6-1
		c0.4-0.5,0.8-0.9,1.3-1.3c0.6-0.6,1.3-1.1,2-1.4c0.1-0.1,0.2-0.1,0.3-0.2c0,0,0,0,0,0c0.1-0.1,0.2-0.1,0.3-0.1
		c0.5-0.2,1.1-0.3,1.7-0.4c0,0,0,0,0,0c0.2,0,0.4,0,0.6,0h0c0.6,0,1.2,0.1,1.9,0.2C269.8,585.1,276.6,589.4,285.5,596z"/>
	<path class="st5" d="M264.1,595c-0.1,0.8-0.2,1.5-0.5,2.1c0,0,0,0,0,0c-0.1,0.1-0.1,0.3-0.2,0.4c-0.6,1.1-1.6,1.7-2.7,2.1
		c-1.1,0.4-2.4,0.6-3.6,0.8c-1.1,0.3-2.2,0.7-3,1.4c-0.2,1.4-0.5,2.6-1.2,3.5c-0.5,0.7-1.2,1.1-2.2,1.3c-0.3,0.1-0.5-1.9-0.8-2.3
		c0,0-0.1-0.1-0.1-0.1c-0.2,0-0.5,2.5-0.7,2.5c-3.7,0.6-6-1.6-5-5.7c0.2-0.7,0.5-1.6,0.9-2.6c1.1-2.4,2.7-5.4,4.2-7.9c0,0,0,0,0,0
		c0.4-0.8,0.9-1.5,1.2-2.1c0,0,0,0,0,0c0.1-0.2,0.2-0.4,0.3-0.5c0,0,0,0,0,0c0.8-1.2,1.3-2,1.3-2l2.3,0.1l6.7,0.3l1,2.9c0,0,0,0,0,0
		l0.9,2.7c0,0,0,0,0,0l0.2,0.5l0.1,0.3l0.2,0.6c0,0,0,0,0,0l0.1,0.3L264.1,595z"/>
	<path class="st14" d="M258.5,582.3c-0.1,0-0.2,0.1-0.3,0.1c-0.6,0.2-1.1,0.4-1.5,0.6c-1.4,0.7-2.2,1.7-2.5,3.7
		c-0.2,1.2-0.2,2.6-0.6,3.8c-0.4,1.3-1.4,2.7-1.4,4c-0.3-2.6,0.1-5,0.4-7.4c0-0.1,0-0.3,0.1-0.4c-0.1,0.5-0.6,1.1-0.8,1.6
		c-0.3,0.7-0.6,1.4-0.8,2.1c-0.3,1.2-0.8,2.7-0.9,4c0.1-2.1,0-4.5,0.6-6.4c-1,1.6-1.2,3.3-1.9,5c0.3-1,0.2-2.2,0.3-3.3
		c0.1-1.2,0.4-2.4,0.9-3.5c1.3-2.6,4-4.8,6.8-5.5c0,0,0,0,0.1,0C257.9,580.9,258.3,581.5,258.5,582.3z"/>
	<path class="st11" d="M273.9,625.3c0,0.3,0,0.5-0.1,0.8c0,0.3-0.1,0.6-0.1,0.8c0,0.2-0.1,0.4-0.1,0.5c0,0,0,0.1,0,0.1
		c-0.1,0.4-0.3,0.8-0.4,1.2c-0.1,0.2-0.1,0.3-0.2,0.5c-0.1-0.2-0.2-0.5-0.3-0.7h0c-0.7-0.4-1.4-0.9-1.9-1.6c-1-1.3-1.5-3.1-1.4-5
		c-1-1.1-1.6-2.4-1.9-3.8c-0.4-2-0.5-3.9-0.4-5.8c-1-4-3.4-8.3-6.2-12.8c-1.1,0.4-2.4,0.6-3.6,0.8c1.3-0.3,2.1-1.1,2.4-2.6
		c0,0,0,0,0,0c0.3-1.2,0.2-2.9-0.1-5.1c-0.2-1.3,1.5-1.9,2.2-0.8c0.1,0.2,0.3,0.4,0.4,0.6c0.1,0.1,0.2,0.2,0.3,0.3
		c0.2,0.2,0.3,0.3,0.5,0.5c0,0,0,0,0,0c0.1,0.1,0.2,0.1,0.3,0.2c0.1,0.1,0.2,0.1,0.3,0.2c0,0,0.1,0,0.1,0.1c0.3,0.2,0.7,0.3,1,0.4
		c0,0,0,0,0.1,0c0.4,0.1,0.8,0.3,1.3,0.4c0.7,0.2,1.3,0.3,2,0.4c2.1,0.4,4.5,1.2,5.4,3.1c0.2,0.3,0.3,0.7,0.3,1.1
		c0.2,1.2-0.1,2.4-0.6,3.6v0l-0.1,0.2c-0.1,0.3-0.3,0.7-0.4,1c0,0,0,0,0,0c-0.2,0.6-0.5,1.2-0.6,1.9c-0.2,0.6-0.3,1.3-0.3,1.9
		c0,0.9,0.3,1.8,0.6,2.8c0.4,1.3,0.7,2.5,0.3,3.7c-0.3,1-1.1,1.9-1.2,3c0,0,0,0.1,0,0.1c0,1.1,0.7,2,1.2,2.9c0,0,0,0.1,0.1,0.1
		C273.6,621.7,274,623.5,273.9,625.3z"/>
	<path class="st11" d="M304.9,625.5c-6.3,2.5-14.4,3.3-21.4,2.4h0c-0.2,0.7-0.6,1.3-0.9,1.9v0l0,0.1c0,0,0,0-0.1,0
		c-1.1-0.5-2.1-1.1-2.6-2.2c0-0.1-0.1-0.1-0.1-0.2c-0.1-0.1-0.1-0.2-0.1-0.4h0c0-0.1,0-0.2-0.1-0.3c-0.1-0.7-0.1-1.4,0-2.2
		c-0.9-2.9-1.2-5.6-1.2-7.7c0-0.8,0.1-1.4,0.2-2c0.4-1.7,1.1-2.6,2-2.6c1-0.2,1.8,0.7,2.2,1.7c0.4,0.9,0.8,2,1.8,2.4
		c1.1,0.4,2.3-0.5,3.4-0.2c1,0.3,1.5,1.5,2.3,2.2c1.6,1.5,4.5,1,5.8,2.8c0.6,0.9,0.9,2.2,1.9,2.5c0.9,0.3,1.8-0.5,2.7-0.8
		C302.6,622.6,304.6,623.8,304.9,625.5z"/>
	<path class="st11" d="M292.9,611.9c0.3,0.9,0,1.9,0.3,2.8c0.4,1.5,2.2,2.4,3.5,1.8c0.1-1.4,0.3-2.8,1-4c1.3-1.9,4.1-2.3,5.8-4
		c0.5-0.7-0.1-1.6-0.8-2c-0.7-0.3-1.6-0.3-2.4-0.4c-1.5-0.3-2.6-1.4-4-2c-1.6-0.7-3.6-0.8-5,0.1c-1.5,1-2.2,3.1-1.2,4.6
		C290.8,609.9,292.4,610.5,292.9,611.9z"/>
	<path class="st11" d="M303.9,615.3c0.2-0.2,0.4-0.4,0.5-0.7c0.3-0.6-0.2-1.4-0.8-1.6c-0.6-0.2-1.4,0.1-1.8,0.6
		c-0.8,0.9-0.8,2.4-0.5,3.6c0.2,0,0.5-0.1,0.7-0.1C302.7,616.6,303.3,616,303.9,615.3z"/>
	<path class="st11" d="M278.6,649c-0.3,0.3-0.6,0.7-0.9,1l-0.7-7.1c-0.8-0.7-1.3-1.8-1.3-3.1c0-0.7,0.2-1.4,0.5-2l-0.9-3.4
		c0.5,0.1,1,0.3,1.4,0.5c0.5,0.3,0.9,0.7,1.2,1.2c0.4,0.6,0.6,1.3,0.6,2c0,0.3,0,0.6,0,0.9c-0.1,0.8-0.2,1.7,0.1,2.4
		c0.1,0.2,0.1,0.3,0.2,0.5c0.4,0.7,1,1.2,1.3,1.9c0.1,0.1,0.1,0.2,0.1,0.3C280.8,645.8,279.7,647.6,278.6,649z"/>
	<path class="st11" d="M330.9,603c-1.1,0-2.3,0-3.2,0.6c-0.6,0.4-1.1,1-1.7,1.3c-0.1,0-0.1,0.1-0.2,0.1c-0.5,0.2-1.1,0.2-1.6,0.3
		c-1.3,0.5-1.7,2.1-1.7,3.5c0,1.4,0.1,2.9-0.9,4c-1,1-2.7,1-3.9,0.2c-1.2-0.8-1.8-2.2-2-3.6c-0.1-0.8-0.2-1.6-0.2-2.4
		c0-0.6,0-1.2-0.1-1.9c0-0.6-0.1-1.3-0.5-1.8c-0.4-0.5-1.2-0.7-1.7-0.3c-0.3,0.3-0.3,0.7-0.6,1c-0.2,0.3-0.8,0.5-0.9,0.1
		c0.7-1.2-0.3-2.8-1.6-3.4c-1.3-0.6-2.8-0.5-4.2-0.8c-1-0.2-1.9-0.6-2.6-1.4c6.5-0.5,11-2.8,14.9-2.8
		C324.7,595.8,328.7,599.2,330.9,603z"/>
	<path class="st11" d="M334.7,636.4c-0.4,0-0.9-0.1-1.3-0.3c-0.7-0.2-1.2-0.6-1.8-1c-0.4-0.3-0.9-0.7-1.3-1
		c-0.8-0.3-1.3-1.1-1.7-1.9c-0.1-0.2-0.2-0.4-0.2-0.6c-0.2-0.6-0.5-1.3-0.9-1.8c-0.6-0.7-1.6-1.1-2.3-0.5c0.7-0.6,0.4-1.8-0.4-2.4
		c-0.7-0.5-1.7-0.6-2.6-0.9c-0.9-0.2-1.8-0.8-2-1.7c-0.2-0.8,0.4-1.7,1.1-2.2c0.7-0.5,1.5-0.8,2.2-1.2c1.2-0.7,2.1-1.8,2.9-2.9
		c0,0,0.1-0.1,0.1-0.1h0c0.9-1.1,1.7-2.3,2.2-3.6c0.6-1.6,0.6-3.4,1.3-5c0.2-0.4,0.4-0.8,0.7-1.2c0,0,0.1-0.1,0.1-0.1
		c0.4-0.5,1-1,1.6-1.2c0.2,0.7,0.4,1.4,0.5,2c0,2.6-0.4,4.4-1.2,5.8c0,0,0,0,0,0c-0.9,6.5-1.9,13,0.5,18.1c0,0.1,0,0.1,0.1,0.2
		c1.1,0.7,1.8,1.4,2.3,2.6C334.7,635.6,334.7,636,334.7,636.4z"/>
	<path class="st11" d="M321.9,630.7c-0.1,0.3-0.2,0.6-0.3,0.9c-3.5-2.5-7.3-4.5-10.4-7.4c0.1-0.5,0.2-1,0.4-1.5
		c0.1-0.3,0.2-0.6,0.4-0.8h0c0.1-0.2,0.3-0.4,0.5-0.6c0.4-0.3,0.9-0.4,1.3-0.2c0.1,0,0.2,0.1,0.3,0.2c0.7,0.7,0,2.1,0.5,2.9
		c0.6,0.9,2.1,0.6,3,1.2c0.7,0.5,0.8,1.6,1.6,2.1c0.7,0.5,1.8,0.2,2.4,0.7C322.3,628.8,322.1,629.8,321.9,630.7z"/>
	<path class="st11" d="M317.1,621.3c0.3,0.2,0.7-0.1,0.8-0.4s0.1-0.7,0.2-1.1c0.2-0.7,1-1,1.6-1.3c0.6-0.3,1.3-0.9,1.2-1.6
		c-0.8-0.7-2.1,0.5-3.1,0.1c-0.4-0.2-0.7-0.6-1-0.9c-0.3-0.3-0.7-0.7-1.2-0.6c0.4,1.8,0.8,3.6,1.3,5.3
		C316.9,621,317,621.2,317.1,621.3z"/>
	<path class="st11" d="M296.4,599.8c-0.9-0.4-2,0.2-2.9,0.5c-1.6,0.5-3.4,0.4-4.9-0.4c0.1-1,0.3-1.9,0.4-2.9c2.5,0.6,5,1.1,7.2,1.4
		c0,0,0,0,0,0c0.1,0.1,0.1,0.2,0.2,0.2C296.6,599,296.7,599.5,296.4,599.8z"/>
	<path class="st11" d="M332.7,654.6c0,0.1-0.1,0.1-0.1,0.1c-0.4,0.4-1.2,0.4-1.8,0.2c-0.9-0.2-1.9-0.4-2.8-0.6l0.9-1.3
		c0.9-3.7,1.4-8.8-0.5-13.4c0,0,0,0,0,0c-0.7-0.7-1.3-1.6-1.8-2.8c0.1-0.1,0.2-0.2,0.3-0.3c0.2-0.2,0.5-0.3,0.8-0.4
		c0.7-0.1,1.4,0.3,1.8,0.8c0,0,0,0,0.1,0.1c0.3,0.4,0.5,0.9,0.6,1.3c0.1,0.2,0.1,0.5,0.2,0.7c0.2,0.9,0.4,1.8,0.6,2.7
		c0.5,2.2,0.9,4.4,1.2,6.6c0.3,1.7,0.5,3.4,0.6,5.1C332.9,653.9,332.9,654.3,332.7,654.6z"/>
	<path class="st19" d="M275.3,632.3c0,0.5,0,0.9-0.1,1.4l-0.5-1.9c-0.7-0.7-1.2-1.5-1.7-2.4v0c-0.1-0.2-0.2-0.5-0.3-0.7h0
		c-0.7-0.4-1.4-0.9-1.9-1.6c-1-1.3-1.5-3.1-1.4-5c-1-1.1-1.6-2.4-1.9-3.8c-0.4-2-0.5-3.9-0.4-5.8c-1-4-3.4-8.3-6.2-12.8
		c-1.1,0.4-2.4,0.6-3.6,0.8c-1.1,0.3-2.2,0.7-3,1.4c-0.2,1.4-0.5,2.6-1.2,3.5c-0.5,0.7-1.2,1.1-2.2,1.3c-0.3,0.1-0.5-1.9-0.8-2.3
		c0,0,0-0.1,0.1-0.1c0.3-0.7,0.7-1.3,1.1-1.8c0.4-0.5,0.8-0.9,1.2-1.4c1-1,1.8-2.5,1.4-3.8c0.9,1.2,2.7,1.6,4.2,1.2
		c0.6-0.2,1.2-0.4,1.7-0.8c0,0,0,0,0,0c0.7-0.5,1.4-1.2,1.9-1.9c0.4-0.5,0.7-1.1,1-1.7c0.1-0.3,0.3-0.6,0.4-1c0,0,0,0,0,0
		c0.1-0.2,0.2-0.5,0.3-0.7c0.1-0.3,0.2-0.5,0.3-0.8c-0.1,0.4-0.2,0.7-0.2,1.1c0,0.2-0.1,0.5-0.1,0.7c-0.1,1.4,0,2.8,0.2,4.1
		c0.1,0.5,0.2,1,0.3,1.5c0.1,0.5,0.3,1,0.5,1.4c0,0.1,0.1,0.2,0.1,0.4c0.7,1.9,1.6,3.6,2.6,5.3c0.3,0.5,0.6,1,0.9,1.5
		c0.3,0.5,0.6,1,0.9,1.4c0.6,1,1.4,2,2.4,2.5c0.3,0.1,0.6,0.2,1,0.2c-0.6,1.5-1.3,3-1.4,4.6c0,0.5,0,0.9,0.1,1.4
		c0.2,1.1,0.7,2.2,1.6,2.9c0,0,0.1,0,0.1,0.1c-0.6,1.1-0.5,2.4-0.2,3.7c0.1,0.4,0.3,0.9,0.4,1.3c0.2,0.5,0.5,1,0.7,1.5
		c0,0.1,0.1,0.2,0.1,0.2c0.3,0.6,0.6,1.1,0.8,1.7c0.2,0.4,0.3,0.8,0.5,1.2C275.1,631,275.2,631.6,275.3,632.3z"/>
	<path class="st14" d="M286.6,600.1c0,0.7-0.1,1.6-0.2,2.4c-0.1,1-0.3,2-0.3,2.9c-0.2-1-1.2-3.7-1.6-4.6c-0.1,0.8-0.2,1.7-0.2,2.6
		c0,1,0.3,1.9,0.2,2.9c-0.6-1-0.4-2.6-1.1-3.5c0,2.5,0.2,4.9,0.3,7.3c-0.9-2-1.1-4.5-2.1-6.4c-0.6,1.4-0.3,3-0.5,4.6
		c-0.3-0.5-0.3-1.6-0.5-2.2c-0.2-0.7-0.4-1.4-0.6-2.1c-0.6,1.6-0.7,3.1-0.8,4.8c-0.4-0.7-0.4-1.7-0.6-2.5c-0.1-0.7-0.1-2-0.5-2.5
		c-0.5,2.6-0.5,5.6-0.5,8.3c-0.4-1.4-0.4-3-0.6-4.5c-0.2-1.4-0.1-3.3-0.7-4.5c-0.1,0.7-0.3,1.3-0.5,2c-0.1,0.7,0.2,2.1-0.2,2.6
		c-0.3-1.2-0.5-2.6-0.7-3.9c-0.3,0.8-0.1,2.2-0.1,3.1c0,1.2-0.1,2.3-0.3,3.4c-0.5-1.3-0.6-2.9-0.9-4.2c-0.2-1.2-0.2-2.8-0.8-3.9
		c-0.5,0.5-0.1,2.2-0.2,3c-0.1,1.1,0.1,2.7-0.2,3.6c-0.2-1.4-0.4-2.9-0.7-4.3c-0.3-1.6-0.2-3.6-0.8-5.2c-0.8,1.3-0.1,3.6-0.6,5
		c-0.2-0.7-0.4-1.4-0.5-2.2c-0.1-0.9-0.1-1.9-0.5-2.6c-0.1,0.1,0,0.2-0.1,0.3c-0.6,0.5-0.4,2.2-0.6,2.9c-0.8-1.8-0.1-4.2-0.5-6.1
		c0,1.6-0.2,3-0.3,4.6c-0.2,1.7-0.6,3.5-0.5,5.2c-1-1.4-0.4-4-0.7-5.6c-0.2-1-0.3-2-0.3-3.1c-0.1-0.9,0.2-2.4-0.3-3.1
		c-0.3,1.5-0.7,3-0.9,4.5c-0.4-1.7-0.1-3.5-0.4-5.2c0,1.3-0.4,2.5-0.4,3.8c-0.1,1.2,0.3,3.1-0.2,4.1c-0.1-2.1-0.4-4.2-0.5-6.4
		c-0.1-1.8,0.2-4.1-0.3-5.8c-0.1,1-0.1,2-0.3,3c-0.1,0.8-0.1,2.2-0.3,2.8c-0.5-2.6,0-5.7-1.2-8.2c-0.6-1.2-1.4-2.3-2.5-3.1
		c-0.8-0.6-1.5-0.9-2.2-0.9c-0.5,0-1,0.1-1.6,0.3c0,0,0,0,0,0c-0.3-0.8,0.4-1.4,1-1.9c0.3-0.3,0.7-0.5,1-0.6c0.3-0.1,0.7-0.1,1.1,0
		c1.9,0.2,3.8,0,5.5,0.8c2.4,1.1,4.9,2.4,7.3,3.6c2.5,1.3,5.4,3.6,7.6,5.4c3.2,2.6,7.2,4.6,8.4,6
		C287.9,597.5,286.6,598.7,286.6,600.1z"/>
	<path class="st19" d="M330.1,659.4h-5.6l2.5-3.7l0.9-1.3l0.9-1.3c0.9-3.7,1.4-8.8-0.5-13.4c0,0,0,0,0,0c-0.7-0.7-1.3-1.6-1.8-2.8
		c-0.1-0.3-0.2-0.7-0.3-1.1c-1.4-1.7-3-3-4.7-4.3c-3.5-2.5-7.3-4.5-10.4-7.4c-0.4-0.4-0.8-0.8-1.2-1.3c-0.4,0.2-0.7,0.4-1.1,0.7
		c-1.2,0.7-2.5,1.4-3.9,1.9c-6.3,2.5-14.4,3.3-21.4,2.4h0c-0.1,0-0.2,0-0.2,0c0-3.4-0.7-6.8-2.1-9.9c3.6,2.7,8.2,4,12.8,4.3
		c4.5,0.3,10-0.8,14.5-1.3h0c-0.4-0.9-0.9-1.7-1.3-2.5c-0.4-0.8-0.7-1.6-0.7-2.5c0.2,0.4,0.5,0.8,0.8,1.2c1.2,1.9,2.6,3.5,4.2,4.9
		c2.6,2.4,5.6,4.4,9,6.2c1.8,0.9,4.2,2.6,6.3,4.3c1.1,0.9,2.1,1.8,2.8,2.6c0.3,0.4,0.6,0.7,0.8,1.1c0.4,0.7,0.6,1.3,0.6,2
		c0.1,1,0,2,0.2,3.6c0.1,0.7,0.2,1.5,0.4,2.4c1,4-0.4,8.3-1.7,12.2c-0.1,0.2-0.2,0.5-0.2,0.7C329.4,657.9,329.7,658.6,330.1,659.4z"
		/>
	<path class="st19" d="M332.2,632.6c-1-0.6-1.7-1.5-2.2-2.6c-0.3-0.7-0.5-1.5-0.9-2.2c-0.4-0.7-1-1.3-1.8-1.3
		c0.7-3.3,1.4-6.6,2.1-9.9c0.1-0.3,0.1-0.6,0.2-0.9c0.5-2.5,1.1-5,1.2-7.6c0-0.1,0-0.1,0-0.2c0,0,0,0,0-0.1c0.1-2.1-0.1-4.3-0.8-6.3
		c0.3,0.4,0.6,0.9,0.8,1.3c0.7,1.2,1.2,2.5,1.6,3.7c0.2,0.7,0.4,1.4,0.5,2c0,2.6-0.4,4.4-1.2,5.8c0,0,0,0,0,0
		C330.8,621,329.8,627.5,332.2,632.6z"/>
	<path class="st19" d="M329.3,613.2c0.7-3.2,0.7-6.7-0.7-9.6c-1.5-2.9-4.6-5.2-7.8-4.9c2.7,1.3,5,3.4,6.5,5.9
		C328.8,607.2,329.5,610.2,329.3,613.2z"/>
	<path class="st17" d="M284.4,600.8c-0.1,0.8-0.2,1.7-0.2,2.6c0,1,0.3,1.9,0.2,2.9c-0.6-1-0.4-2.6-1.1-3.5c0,2.5,0.2,4.9,0.3,7.3
		c-0.9-2-1.1-4.5-2.1-6.4c-0.6,1.4-0.3,3-0.5,4.6c-0.3-0.5-0.3-1.6-0.5-2.2c-0.2-0.7-0.4-1.4-0.6-2.1c-0.6,1.6-0.7,3.1-0.8,4.8
		c-0.4-0.7-0.4-1.7-0.6-2.5c-0.1-0.7-0.1-2-0.5-2.5c-0.5,2.6-0.5,5.6-0.5,8.3c-0.4-1.4-0.4-3-0.6-4.5c-0.2-1.4-0.1-3.3-0.7-4.5
		c-0.1,0.7-0.3,1.3-0.5,2c-0.1,0.7,0.2,2.1-0.2,2.6c-0.3-1.2-0.5-2.6-0.7-3.9c-0.3,0.8-0.1,2.2-0.1,3.1c0,1.2-0.1,2.3-0.3,3.4
		c-0.5-1.3-0.6-2.9-0.9-4.2c-0.2-1.2-0.2-2.8-0.8-3.9c-0.5,0.5-0.1,2.2-0.2,3c-0.1,1.1,0.1,2.7-0.2,3.6c-0.2-1.4-0.4-2.9-0.7-4.3
		c-0.3-1.6-0.2-3.6-0.8-5.2c-0.8,1.3-0.1,3.6-0.6,5c-0.2-0.7-0.4-1.4-0.5-2.2c-0.1-0.9-0.1-1.9-0.5-2.6c-0.1,0.1,0,0.2-0.1,0.3
		c-0.6,0.5-0.4,2.2-0.6,2.9c-0.8-1.8-0.1-4.2-0.5-6.1c0,1.6-0.2,3-0.3,4.6c-0.2,1.7-0.6,3.5-0.5,5.2c-1-1.4-0.4-4-0.7-5.6
		c-0.2-1-0.3-2-0.3-3.1c-0.1-0.9,0.2-2.4-0.3-3.1c-0.3,1.5-0.7,3-0.9,4.5c-0.4-1.7-0.1-3.5-0.4-5.2c0,1.3-0.4,2.5-0.4,3.8
		c-0.1,1.2,0.3,3.1-0.2,4.1c-0.1-2.1-0.4-4.2-0.5-6.4c-0.1-1.8,0.2-4.1-0.3-5.8c-0.1,1-0.1,2-0.3,3c-0.1,0.8-0.1,2.2-0.3,2.8
		c-0.5-2.6,0-5.7-1.2-8.2c-0.6-1.2-1.4-2.3-2.5-3.1c-0.8-0.6-1.5-0.9-2.2-0.9c-1.4,0.7-2.2,1.7-2.5,3.7c-0.2,1.2-0.2,2.6-0.6,3.8
		c-0.4,1.3-1.4,2.7-1.4,4c-0.3-2.6,0.1-5,0.4-7.4c0.1-0.3,0.2-0.6,0.4-0.9c0.5-1.1,1.2-2.2,2.1-3c0.6-0.5,1.2-0.8,1.9-0.9
		c0.4-0.1,0.8,0,1.2,0c0.7,0.1,1.4,0.5,2,0.9c0.9,0.7,1.7,1.6,2.4,2.5c0.7,0.9,1.4,1.8,2.1,2.7c-0.1-1.1-0.1-2.3-0.2-3.4
		c1,1.1,1.8,2.4,2.5,3.7c0.1-1,0.3-2.1,0.4-3.1c1,1.7,1.6,3.6,1.8,5.6c0-0.4,0.3-0.8,0.7-0.9c0.1,0.7,0.1,1.3,0.2,2
		c0.4-0.1,0.8-0.4,0.9-0.8c0.1,0.6,0.2,1.3,0.3,1.9c0.3-1.4,0.6-2.8,1-4.3c0.7,2,1.3,4,2,6.1c0.2-0.5,0.4-1,0.7-1.5
		c0.1,0.9,0.2,1.7,0.4,2.6c0.3-1.5,0.6-3,0.9-4.5c0.4,2,0.8,4,1.2,6c0.1-0.8,0.2-1.6,0.3-2.5c0.7,1.2,1.3,2.4,2,3.6
		c0.2-0.3,0.4-0.6,0.7-0.9c0.3,0.7,0.5,1.4,0.8,2c0.2-1.4,0.4-2.8,0.6-4.1c0.5,1.5,0.8,3.1,0.9,4.8c0.3-0.9,0.6-1.7,0.9-2.6
		c0.1,0.3,0.1,0.6,0.2,0.9c0.2-1,0.4-1.9,0.6-2.9c0.4,1.9,1.2,3.8,1.7,5.7c0.1,0.2,0.1,0.5,0.2,0.7c-0.1,1-0.3,2-0.3,2.9
		C285.8,604.4,284.9,601.7,284.4,600.8z"/>
	<path class="st5" d="M255.8,584.7l-1.4-6.5c1.9,1.2,3.6,3.2,5.2,6.1L255.8,584.7z"/>
	<path class="st12" d="M257.3,584.8c-0.2-2.6-1.8-4.9-2.2-5.4c0,0.2,0.6,4.4,0.8,5.1C256.2,584.5,257.1,584.6,257.3,584.8z"/>
</g>
<rect x="765.2" y="549.7" transform="matrix(3.465565e-03 -1 1 3.465565e-03 212.5883 1452.6948)" class="st0" width="139.9" height="139.9"/>
<rect x="784.8" y="569.2" transform="matrix(3.465565e-03 -1 1 3.465565e-03 212.6375 1452.8447)" class="st6" width="101" height="101.1"/>
<g>
	
		<rect x="426.1" y="549.7" transform="matrix(3.465565e-03 -1 1 3.465565e-03 -125.3667 1113.5665)" class="st0" width="139.9" height="139.9"/>
	
		<rect x="445.6" y="569.2" transform="matrix(3.465565e-03 -1 1 3.465565e-03 -125.3176 1113.7164)" class="st2" width="101" height="101.1"/>
	<path class="st14" d="M553.5,625.5c-0.1-0.2-0.2-0.5-0.2-0.7c1.4,3,4,5.5,7.5,5.7c-3.8-0.4-6.2-3.5-7.4-6.9
		c-0.1-0.2-0.1-0.3-0.2-0.5c-1.3-4-1.2-8.4-3.1-12.2c-0.3-0.7-0.8-1.4-1.2-2.1c-1.4-2.2-3.5-4-6.1-4.7c-2.1-0.6-4.3,0-6.3,0.7
		c-1.9,0.7-3.8,1.5-5.8,1.4c-0.2,0-0.7-0.1-1-0.1c-0.1,0-0.1,0-0.2,0h0c0,0,0,0-0.1,0l0.6,2.1c0.1,0,0.3,0.1,0.4,0.1
		c0,0,0.1,0,0.1,0c0,0,0,0,0,0c0.1,0,0.3,0.1,0.5,0.1c0.1,0,0.2,0.1,0.4,0.1c0.7,0.2,1.6,0.4,1.7,0.6c0.3,0.2,0.7,0.4,1,0.6
		c2.3,1.4,4.6,2.9,5.9,5.4c1.2,2.3,1.8,4.9,2.7,7.3c0.2,0.8,0.4,1.5,0.7,2.2c0.2,0.7,0.5,1.3,0.8,2c0.3,0.6,0.7,1.2,1.2,1.7
		c0.6,0.7,1.3,1.2,2,1.6c1.6,2,3.9,3.4,6.5,3.5c-1.5-0.4-2.8-1.3-3.8-2.4c0.3,0.1,0.6,0.1,0.8,0.2c0.8,0.6,1.7,1,2.6,1.3
		c-0.5-0.3-1-0.7-1.4-1.1c0.2,0,0.5,0,0.7,0.1c1.2,1.1,2.6,2,4.3,2.2c-1.2-0.5-2.2-1.2-3-2.1c0.5,0,1,0,1.6,0
		c-0.6-0.2-1.3-0.3-2-0.5c-1.3-1.8-2-4-2.5-6.1c0.2,0.4,0.3,0.8,0.5,1.2c1.5,3.2,4.3,6.1,8,6.5c0.2,0,0.5,0,0.7,0
		C556.9,631.5,554.6,628.7,553.5,625.5z M551.7,630.2c-0.4-0.1-0.7-0.3-1.1-0.4c-0.2-0.3-0.5-0.7-0.6-1c-0.9-1.7-1.3-3.7-1.6-5.6
		c0-0.3-0.1-0.7-0.1-1c0.5,2.1,1.1,4.1,2.1,6C550.8,628.9,551.3,629.6,551.7,630.2z"/>
	<polygon class="st14" points="469,577 478.2,585.3 484.6,598.5 463.8,580.1 454.1,574.2 459.3,572.6 	"/>
	<path class="st20" d="M509.5,655.6l-2.7-1.5c-2.3,1.7-4.2,3.6-5.3,5.3h7.3C508.6,658.1,508.6,657,509.5,655.6z"/>
	<path class="st14" d="M508.8,659.4h-7.3c-0.8,1.2-1.3,2.4-1.4,3.4l8.2-2c0.6-0.2,0.6-0.6,0.5-1.3
		C508.8,659.5,508.8,659.4,508.8,659.4z"/>
	<path class="st20" d="M505.9,655.6c0.2,1,3.1,0.7,4.7,0.5c0.5-0.1,0.8-0.5,0.8-1c-0.2-3.1,4.6-8,8.5-11.8l-4-2.8
		C515,645.2,505.4,652.4,505.9,655.6z"/>
	<path class="st20" d="M524.4,628.6c-4.7,3.8-6.8,7.7-3.7,12.9c-1.4,2.2-2.7,2.6-5,1c-4.7-7.4-6.2-16.4-6.5-27.2L524.4,628.6z"/>
	<path class="st20" d="M514.7,641.5c-0.7,1.9,0.1,3.8,1.7,4.4c1.6,0.6,3.4-0.5,4.1-2.4c0.7-1.9-0.1-3.8-1.7-4.4
		C517.2,638.6,515.4,639.7,514.7,641.5z"/>
	<path class="st20" d="M489.1,659.5c0.7,0.8,2.7-1.6,3.1-3.1c0.1-0.5,0.3-1,0-1.4c-2.4-2.9-6.1-10.9-8-16.1l-3.6,1.9
		C483.8,645,486.9,657.1,489.1,659.5z"/>
	<path class="st20" d="M480.5,641.5c0.8,1.8,2.5,2.6,3.9,1.9c1.4-0.7,1.9-2.8,1.1-4.6c-0.8-1.8-2.5-2.6-3.9-1.9
		C480.2,637.6,479.7,639.7,480.5,641.5z"/>
	<path class="st20" d="M484.7,638.2c-1.7-3.7-2.4-8.1-2.2-13.1l-11.4-2.2c3.1,6.2,7,12.9,10,18.9L484.7,638.2z"/>
	<path class="st20" d="M494,656c-1.3,0.5-2.5,0.7-4.1,0.1l-1.1,2.9c2.1,2,4.3,3.5,6.3,4.3l-0.9-7.3C494.1,655.9,494,656,494,656z"/>
	<path class="st14" d="M498.7,664l-3.4-7.7c-0.2-0.5-0.7-0.5-1.2-0.3l0.9,7.3C496.4,663.8,497.7,664.1,498.7,664z"/>
	<path class="st11" d="M448.4,654.9c0.1-0.2,0.3-0.4,0.4-0.7l-2.6-1.8c-0.3,0.2-0.6,0.4-0.9,0.6c-1.9,1.3-3.5,2.8-4.7,4.2l7.1,0.7
		C447.7,656.9,447.8,656,448.4,654.9z"/>
	<path class="st14" d="M447.8,658l-7.1-0.7c-1.1,1.3-1.8,2.6-1.9,3.7l8.5-1.4c0.7-0.1,0.7-0.6,0.6-1.3
		C447.8,658.2,447.8,658.1,447.8,658z"/>
	<path class="st11" d="M460.3,641.5c-0.3,0.3-0.6,0.5-0.9,0.8c-4.1,3.6-8.5,8.6-8.6,11.6c0,0.5-0.4,0.9-0.9,0.9c-0.2,0-0.5,0-0.7,0
		c-0.2,0-0.5,0-0.8,0c-1.5,0-3.1-0.2-3.2-1c0-0.3,0-0.6,0.1-0.9c1.1-3.4,8.6-9.3,11.4-13.1c0.3-0.4,0.6-0.8,0.7-1.2l1,0.9
		L460.3,641.5z"/>
	<path class="st11" d="M463.1,639.4c-0.2,0.4-0.5,0.9-0.8,1.3c-0.8,1-1.9,1.5-2.9,1.6c-0.7,0.1-1.3-0.1-1.8-0.5
		c-0.2-0.1-0.3-0.3-0.4-0.5c-0.3-0.4-0.4-0.9-0.4-1.4c0-1,0.4-2.1,1.2-3c0.5-0.6,1.2-1.1,1.9-1.4c0.5-0.2,1.1-0.3,1.5-0.3
		c0.5,0,1,0.2,1.3,0.5C463.5,636.6,463.7,638.1,463.1,639.4z"/>
	<path class="st20" d="M456,568.5c2.5,1.6,3.8,5,4.2,8.5l-3.9-1.2L456,568.5z"/>
	<path class="st11" d="M518.7,611.1c-0.2,3.6-1.2,6.7-2.8,9.2c-6.3,9.9-21.9,11.8-38.8,9.8c-0.7-0.1-1.4-0.2-2-0.4
		c-1.2-0.4-2.3-0.9-3.3-1.5c-1.5-1-2.7-2.2-3.6-3.7c-0.3-0.4-0.5-0.8-0.8-1.3c-0.6-1.1-1-2.2-1.3-3.4c-0.1-0.2-0.1-0.4-0.1-0.6
		c-0.1-0.5-0.2-1-0.2-1.5c-0.1-0.7-0.1-1.4-0.1-2c0.1-0.4,0.3-0.8,0.4-1.2c2.7-7,10-11.1,16.7-14.7c0.3-0.2,0.5-0.3,0.8-0.4
		c0.1,0,0.2-0.1,0.2-0.1c0.1,0,0.1-0.1,0.2-0.1c1.1,0.5,2,1,3,1.4c0.2,0.1,0.4,0.2,0.6,0.2c2.9,1.2,5.6,2,9.6,2.6
		c6.6,0.7,11,0.6,16.5-0.9C516.8,604.1,518.7,607,518.7,611.1z"/>
	<path class="st11" d="M548.3,628.2c0,0.1,0.1,0.1,0.1,0.2c0,0,0,0-0.1,0C548.3,628.3,548.3,628.3,548.3,628.2z"/>
	<path class="st11" d="M487.6,600.8L487.6,600.8l-0.4,0.4l-1.1,1.3l-0.3,0.3l-1,1.1l-10.1,11l-6.7,7.3c-0.6-0.5-1.3-1.8-1.8-3.4
		c-0.1-0.2-0.1-0.3-0.2-0.5c-0.1-0.2-0.2-0.5-0.2-0.7c-0.9-2.8-1.5-6-1.5-7.4c0.3-9.3-1.4-15.1-5-21.4c-0.4-0.7-0.8-1.4-1.3-2.1
		c-0.2-0.3-0.4-0.7-0.6-1c-0.9-1.3-1.8-2.7-2.8-4.2l3-4.1l0.7-0.9l1.4-2c0.8,0.2,1.6,0.4,2.4,0.7c0.2,0.1,0.4,0.2,0.7,0.2
		c1.5,0.5,2.9,1.2,4.2,2c0.2,0.1,0.3,0.2,0.5,0.3h0c0.6,0.4,1.2,0.8,1.8,1.2c0.1,0,0.1,0.1,0.2,0.1c2.9,2.1,5.3,4.5,7.1,6.8
		c0.8,0.9,1.4,1.9,2.1,2.9c0.1,0.2,0.3,0.5,0.4,0.7c0.6,1,1.2,2,1.7,3c0.1,0.1,0.1,0.2,0.2,0.4c0.8,1.4,1.5,2.7,2.4,3.8
		c0.1,0.1,0.1,0.2,0.2,0.2c0.4,0.5,0.7,1,1.1,1.4c0,0,0,0,0,0c0.7,0.8,1.5,1.5,2.4,2C487.2,600.6,487.4,600.7,487.6,600.8z"/>
	<path class="st11" d="M462,586.1c-0.2,0.4-0.4,0.7-0.6,1.1c-0.6,0.8-1.3,1.4-2.2,1.8c-1.8,0.8-4,0.9-6.1,0
		c-0.8-0.4-1.6-0.8-2.2-1.4c-0.8-0.7-1.4-1.4-1.8-2.3c-0.7-1.5-0.9-3.2-0.2-4.7c1.3-3,5.1-4.3,8.6-3c0.1,0,0.2,0.1,0.3,0.1
		c1.5,0.6,2.6,1.6,3.4,2.7C462.4,582.1,462.8,584.2,462,586.1z"/>
	<path class="st11" d="M463,576.2L463,576.2l-1.1,2.7l-0.6,1.5l-2,4.8l-1.8,0.6l-1.9,0.6l-3.9,1.3c0-0.1-0.3-0.1-0.7-0.2
		c-2-0.4-7.3-1.1-7.3-1.1s-1.6,1.7-2.1,1.7l-1.2,0l1.2-2.3c0,0,0,0,0,0l-2.5,1.4l-0.7-0.6c-0.4-0.3-0.6-0.8-0.7-1.3
		c-0.1-1-0.5-2.3,0.1-3.7c0.7-1.5,2.5-1.7,3.5-2.3c2.1-1.2,6.6-2.7,10.5-3.9c1.1-0.3,2.1-0.6,3-0.9c0.1,0,0.3-0.1,0.4-0.1
		c0.4-0.1,0.8-0.2,1.2-0.3c1.9-0.6,4-0.1,5.6,1.1c0.1,0,0.1,0.1,0.2,0.1c0.3,0.2,0.6,0.5,0.9,0.8C462.9,576.1,463,576.2,463,576.2z"
		/>
	<path class="st14" d="M487.2,601.2c0-0.2-0.1-0.5-0.2-0.7c0,0,0,0,0,0c-0.1-0.3-0.1-0.5-0.2-0.8c-0.3-1-0.8-2-1.4-2.9
		c-1.8-5.3-4.8-10.2-8.7-14.3c-3.5-3.7-7.6-6.8-12.2-8.4c-0.2-0.1-0.4-0.3-0.6-0.4c-0.5-0.4-1.1-0.7-1.8-0.9
		c-0.9-0.2-1.8-0.3-2.7-0.2c-0.3-0.1-0.5-0.1-0.5-0.1c-1-0.2-2.1-0.2-3.1,0.1c-1,0.3-1.8,0.8-2.6,1.5c-0.6,0.5-1.3,1.3-2.2,0.9
		c0.2,0.3,0.4,0.5,0.7,0.5c0.9,0.3,2.2-0.4,3.1-0.9c0.1-0.1,0.2-0.1,0.3-0.2c0.2-0.1,0.3-0.2,0.5-0.2c0.2-0.1,2.7-0.7,4.1-1
		c0.3,0.1,0.5,0.1,0.8,0.2c0.5,0.2,0.9,0.5,1,0.5c0.6,0.4,1,1,1.3,1.6c0.1,0.2,0.2,0.3,0.2,0.5c0,0.1,0.1,0.1,0.1,0.2
		c0.2,0.4,0.3,0.8,0.4,1.3c0.2,0.8,0.3,1.7,0.5,2.5c0.3,1.8,0.6,3.6,1.6,5.3c-0.2-1.3-0.2-2.7-0.2-4.1c0-0.1,0-0.3,0-0.4
		c0,0.2,0.1,0.4,0.1,0.5c0.5,2.3,1,4.5,1.8,6.7c0-1.2-0.1-2.5-0.2-3.7c0.1,0.3,0.1,0.5,0.2,0.8c0.1-0.7,0.2-1.3,0.2-1.9
		c0.1-1.7,0-3.4-0.4-5.2c0-0.1-0.1-0.3-0.1-0.4c-0.1-0.4-0.3-0.9-0.5-1.3c0.4,0.5,0.8,1,1,1.6h0c0.6,1.3,0.8,2.7,0.9,4.2
		c0,0.6,0,1.3,0.1,1.9c0.1,2.2,0.4,4.3,1.5,6.3c-0.2-1.7-0.1-3.4-0.1-5c0.1-1.2,0.1-2.4,0-3.7c-0.1-0.9-0.3-1.7-0.6-2.5
		c-0.1-0.2-0.1-0.3-0.2-0.5c0.1,0.2,0.2,0.4,0.4,0.6c0.5,0.8,0.8,1.7,1,2.7c0.3,1.5,0.4,3,0.6,4.5c0.2,1.4,0.6,2.8,1.4,4.1
		c-0.3-1-0.4-2.1-0.4-3.1c0-1.1,0.1-2.2,0-3.3c0.1,0.6,0.2,1.2,0.2,1.8c0.1,0.7,0.1,1.3,0.2,2c0.3,1.9,0.8,3.8,1.7,5.6
		c-0.1-1.3-0.2-2.8-0.2-4.3c0-1.5-0.1-3.1-0.4-4.6c0.4,1.7,0.7,3.4,1,5.1c0.2,1.3,0.5,2.6,0.9,3.8c0-1,0-2,0.1-3
		c0-1.4,0-2.8-0.2-4.2c0.1,0.3,0.2,0.6,0.2,0.8c0.5,1.5,1.1,3.1,1.8,4.5c0,0.2,0,0.4,0.1,0.6c0.3,2.4,0.6,4.7,1.2,7.1
		c0.2-1.9,0.3-3.8,0.2-5.8c0-1-0.1-2.1-0.1-3.1c0-0.5-0.1-0.9-0.2-1.4c-0.2-1-0.4-1.9-0.8-2.8c0.1,0.1,0.2,0.3,0.3,0.4
		c0.4,0.9,0.7,2,0.9,3.1c0,0.2,0,0.3,0.1,0.5c0.1,1.3,0.2,2.5,0.4,3.8c0.2,2.2,0.6,4.3,1.9,6.3c-0.4-1.7-0.5-3.4-0.5-5.1
		c0-0.8,0-1.6,0-2.5c0-0.1,0-0.2,0-0.4c0.1,0.2,0.1,0.5,0.2,0.7c0,0.1,0.1,0.3,0.1,0.4c0.2,0.9,0.5,1.7,0.7,2.6
		c0.3,1.3,0.7,2.6,1.1,3.9c0.3,1.1,0.7,2.2,1,3.3c-0.1-1.2-0.1-2.5-0.2-3.7c-0.1-0.7-0.1-1.3-0.2-2c0-0.2-0.1-0.4-0.1-0.6
		c-0.1-0.5-0.2-1-0.3-1.6c0-0.1,0-0.1,0-0.2c0,0.1,0,0.2,0.1,0.3c0.2,0.6,0.3,1.1,0.4,1.7c0,0.2,0.1,0.3,0.1,0.5
		c0.1,0.4,0.1,0.8,0.2,1.1c0,0.2,0.1,0.4,0.1,0.6c0.2,1.6,0.5,3.1,0.9,4.6c0.4,1.4,0.9,2.8,1.5,4.2c-0.2-1.7-0.4-3.5-0.5-5.3
		c-0.1-0.6-0.1-1.3-0.2-1.9c0,0,0,0,0,0.1c0.2,0.5,0.3,1,0.4,1.5c0.3,1.2,0.7,2.4,1.4,3.4c0.2,0.3,1.7,2.1,2.3,1.8
		C487.8,606.1,487.6,603.5,487.2,601.2z M471.6,579.8c-0.2-0.3-0.5-0.6-0.8-0.8c0,0-0.1-0.1-0.1-0.1c0.1,0.1,0.3,0.2,0.4,0.3
		C471.3,579.4,471.4,579.6,471.6,579.8z"/>
	<path class="st11" d="M458.8,568.4c2.2,2,2.9,5.5,2.8,9.1l-3.6-1.8L458.8,568.4z"/>
	<path class="st14" d="M548.3,661.4l-0.1-8.6c0-0.7-0.5-0.8-1.1-0.8l-1.5,7.5c0.4,0.4,0.8,0.7,1.2,1
		C547.2,660.9,547.8,661.2,548.3,661.4z"/>
	<path class="st11" d="M547,652c-1,0-1.9-0.2-2.7-0.7c-0.4-0.2-0.8-0.5-1.1-0.9l-1,1l-1.2,1.3c0.1,0.3,0.2,0.5,0.3,0.8
		c1.2,2.5,2.7,4.6,4.1,6.1L547,652C547,652,547,652,547,652z"/>
	<path class="st11" d="M544.9,650.4c-0.2,0.3-0.4,0.6-0.7,0.9c-0.5,0.6-1,1.2-1.5,1.6c-0.5,0.4-1,0.7-1.4,0.5c0,0-0.1,0-0.1-0.1
		c-2.6-1.9-1.4-12.3-3.4-17.2c-0.2-0.4-0.4-0.8-0.6-1.1l0.6-0.1l0.7-0.1l1-0.2l2.7-0.4c0,0.4,0,0.9,0,1.3c0,5.4,0.3,11.5,2.6,13.5
		C545.2,649.5,545.2,650,544.9,650.4z"/>
	<path class="st11" d="M542.2,635.7c-0.2,0.3-0.5,0.6-0.8,0.9c-0.5,0.3-1,0.4-1.5,0.4c-0.7,0-1.4-0.3-2-0.7c-0.4-0.3-0.7-0.7-1-1.1
		c-0.1-0.1-0.1-0.2-0.2-0.3c-0.5-0.9-0.6-1.8-0.4-2.6c0.2-0.7,0.6-1.4,1.2-1.8c0.1-0.1,0.3-0.1,0.4-0.2c0.3-0.1,0.5-0.2,0.8-0.2
		c0.5-0.1,1.1,0,1.6,0.3c0.1,0,0.1,0.1,0.2,0.1c0.6,0.3,1.1,0.8,1.5,1.4C542.8,633.1,542.8,634.6,542.2,635.7z"/>
	<path class="st21" d="M515.9,614.8v5.5c-6.3,9.9-21.9,11.8-38.8,9.8c-2-0.2-3.8-0.9-5.3-2v-13.3
		C482.9,631.3,506.4,628.7,515.9,614.8z"/>
	<path class="st11" d="M533,618.9c0,0.8-0.1,1.7-0.3,2.6c-0.4,1.5-1,3-1.8,4.4c-1.2,2.2-2.7,4.1-4.2,5.2c-1.1,0.8-2.1,1.1-3.1,0.9
		c0,0,0,0,0,0c0,0,0,0-0.1,0c-6.8-2.2-10.6-4.3-12.8-7.7c-1.5-2.3-2.1-5.3-2.4-9.3c-0.5-8.7,2-12.9,9.3-13.4
		c5.4-0.4,9.2,1.4,11.6,4.4c0,0,0.1,0.1,0.1,0.1c0,0,0,0,0,0c0.5,0.7,1,1.4,1.4,2.2C532.4,611.2,533,614.9,533,618.9z"/>
	<path class="st11" d="M539.5,634.5c-0.3,0.2-0.6,0.3-1,0.4c-0.1,0-0.2,0.1-0.4,0.1c-0.1,0-0.2,0-0.3,0c-0.4,0-0.8-0.1-1.2-0.1
		c-4.2-0.5-8.8-1.3-12.9-2.8c0,0,0,0,0,0c-3.5-1.3-6.7-3-9.3-5.6c-0.5-0.5-0.9-0.9-1.4-1.5l16.9-4.7l2.7-0.8c0,0.7,0,1.4,0.1,2
		c0.4,4.3,2,7.4,5.9,8.5c0.4,0.1,0.8,0.2,1.2,0.3c0.2,0,0.4,0.1,0.6,0.1C541.1,632.4,540.9,633.6,539.5,634.5z"/>
	<path class="st21" d="M469,623.6c-0.2,0.4-0.4,0.7-0.8,0.9c-0.4,0.3-0.9,0.4-1.4,0.5c-0.3,0-0.5,0-0.8,0c0-0.1,0-0.3,0-0.4
		l-0.1-5.3c-0.1-0.5-0.2-1-0.2-1.5c-0.9-2.8-1.5-6-1.5-7.4c0.3-9.3-1.4-15.1-5-21.4c-1.8,0.8-4,0.9-6.1,0c-0.8-0.4-1.6-0.8-2.2-1.4
		c-2-0.4-7.3-1.1-7.3-1.1s-1.6,1.7-2.1,1.7l-1.2,0l1.2-2.3c2.2-0.9,5.6-0.5,7-0.6c0.2,0,0.5,0,0.7-0.1c1.2-0.2,2.3-0.7,2.9-1.7
		c0.8,1.3,2,2.4,3.5,2.9c0.2,0.1,0.5,0.2,0.7,0.2c0.6,0.1,1.2,0.2,1.8,0.2c1.2-0.1,2.3-0.4,3.3-1.1c0,0.5,0.1,0.9,0.2,1.4
		c0.8,4.1,4.2,8,5.6,12c1.3,3.8-1.5,5.8-1.2,11.6c0.1,1.5,0.2,2.7,0.2,3.8c0.1,1.3,0.1,2.3,0.1,3.1c0,0.5,0,0.9,0,1.3
		c0,0.3,0,0.6,0,0.9c0,0.9,0,1.7,0.1,3.1c0,0.3,0.6,0.3,1.2,0.4C468.2,623.3,469.1,623.3,469,623.6z"/>
	<path class="st11" d="M479.3,618.7l-2.4,8c-0.3,1.1-0.9,2.1-1.7,2.9c-0.3,0.3-0.7,0.7-1.1,0.9l-11,8.8l-1.3,1l-2.6-1.9l-0.9-0.7
		l1.5-2.3l4.6-7.2l0.9-1.4c0.4-0.6,0.7-1.3,0.8-2.1c0-0.1,0-0.3,0-0.4l-0.1-5.3l0-0.6c0-0.1,0-0.2,0-0.2c0-0.3,0.1-0.6,0.2-0.8
		c0.9-2.2,5.1-3.1,8.5-2.7C477.5,615.2,479.9,616.5,479.3,618.7z"/>
	<path class="st21" d="M475.7,624.5c-0.2,1.4-0.5,2.9-1.4,4.1s-2.7,1.7-3.9,0.7c1.1-0.2,1.9-0.9,2.5-1.8c0.6-0.9,1-1.9,1.3-2.9
		c0.9-2.7,1.8-5.4,2.8-8.2C476.6,619.1,476.2,621.8,475.7,624.5z"/>
	<path class="st21" d="M546.7,660.5c-1.9-1.3-3.8-3.8-5.4-7.1c0,0-0.1,0-0.1-0.1c-2.6-1.9-1.4-12.3-3.4-17.2c-0.4-0.3-0.7-0.7-1-1.1
		c-0.1-0.1-0.1-0.2-0.2-0.3c-4.2-0.5-8.8-1.3-12.9-2.8c0,0,0,0,0,0c0,0,0,0-0.1,0c-6.8-2.2-10.6-4.3-12.8-7.7
		c1.1,0.8,2.3,1.5,3.5,2.2c3.9,2.2,8.1,3.7,12.4,4.7c3.1,0.7,6.3,1.1,9.5,1.1c1,0,1.9,0,2.9-0.1c0.1,0.8,0.2,1.5,0.3,2.3
		c0,0.1,0,0.2,0,0.3c0.1,0.7,0.2,1.5,0.3,2.2c0.3,2.6,0.7,5.1,1,7.7c0.3,2.3,0.6,4.7,1.3,6.9c0.2,0.5,0.3,1,0.6,1.5
		c0.1,0.2,0.2,0.4,0.3,0.6c0.8,1.7,1.9,3.2,2.8,4.9C546.1,659.1,546.4,659.8,546.7,660.5z"/>
	<path class="st21" d="M464.4,628.4c-0.8,2.4-1.8,4.7-3.1,6.9c-0.6,1.1-1.3,2.2-2.1,3.2c-0.3,0.4-0.5,0.8-0.8,1.1
		c-0.4,0.6-0.9,1.1-1.3,1.7c-1.1,1.3-2.3,2.6-3.5,3.8c-1.7,1.7-3.6,3.4-4.3,5.7c-0.4,1.3-0.3,2.7-0.2,4.1c-0.2,0-0.5,0-0.8,0
		c-0.6,1.1-0.7,2.2-0.6,3.4c0.1,0.7,0.1,1.2-0.6,1.3l-8.5,1.4c0.4-2.3,2.8-5.4,6.6-7.9c1.1-3.4,8.6-9.3,11.4-13.1c0-1,0.4-2.1,1.2-3
		c0.5-0.6,1.2-1.1,1.9-1.4L464.4,628.4z"/>
	<path class="st21" d="M540.2,630.4c-0.1,0-0.2,0-0.4,0c-0.7,0-1.4,0-2-0.1c-2-0.2-3.9-0.8-5.3-2.2c-0.6-0.6-1.2-1.3-1.5-2.1
		c-0.8-1.6-1.1-3.4-1.1-5.1c0-0.2,0-0.4,0-0.6c0.1-2.4,0.6-4.9,0.7-7.3c0.1-1.6,0.1-3.3-0.3-4.8c-0.2-0.7-0.4-1.4-0.8-2.1
		c0,0,0,0,0,0c0,0,0-0.1-0.1-0.1c-0.1-0.2-0.2-0.4-0.4-0.6c0.2,0.2,0.3,0.4,0.5,0.6c0.6,0.8,1.2,1.6,1.7,2.4c-0.1,0-0.3-0.1-0.4-0.1
		c1.5,2.9,2.1,6.6,2.2,10.7c0,0.8-0.1,1.7-0.3,2.6c0.4,4.3,2,7.4,5.9,8.5C539.2,630,539.7,630.1,540.2,630.4z"/>
	<path class="st21" d="M509.9,615.4c0.4,3.3,2,6.4,4.6,8.5c2.5,2.2,5.8,3.3,9.1,3.2C517.7,625.7,512.9,620.9,509.9,615.4z"/>
	<path class="st20" d="M439.4,581.9c-0.5-0.7-1.1-0.7-1.3,0.2c-0.1,0.8,0.1,1.6,0.5,2.2L439.4,581.9z"/>
	<path class="st21" d="M460.2,575.1c0.2-2.6-0.8-5.3-1.2-5.9c0,0.2-0.6,4.4-0.5,5.1C458.9,574.4,460.1,574.9,460.2,575.1z"/>
	<path class="st20" d="M451.7,576.9c-0.2,0-0.5,0.1-0.7,0.2l0.3-0.7c1.4-0.2,2.4,0.1,3.3,1.1c-0.5-0.2-1-0.4-1.4-0.5
		c0.2,0.2,0.3,0.4,0.3,0.7c0,0.5-0.6,0.8-1.2,0.8c-0.6-0.1-1.1-0.5-1-1C451.3,577.2,451.5,577,451.7,576.9z"/>
	<path class="st17" d="M553.5,625.5c-0.1-0.2-0.2-0.5-0.2-0.7c1.4,3,4,5.5,7.5,5.7c-3.8-0.4-6.2-3.5-7.4-6.9
		c-0.1-0.2-0.1-0.3-0.2-0.5c-1-0.9-1.8-1.8-2.4-3c-1.3-2.6-1.3-6.1-3.5-8c1.3,2.2,1.4,5.1,0.4,7.5c-0.3-3-1.4-6-3.1-8.5
		c1.5,3,2.1,6.5,1.7,9.8c-0.3-5.7-4.3-10.6-8.6-14.4c0.9,2.1,2.5,3.8,3.9,5.6c1.3,1.9,2.4,4.1,2,6.3c-1.3-4.4-5-7.8-9.4-8.9
		c2.3,1.4,4.6,2.9,5.9,5.4c1.2,2.3,1.8,4.9,2.7,7.3c0.2,0.8,0.4,1.5,0.7,2.2c0.2,0.7,0.5,1.3,0.8,2c0.3,0.6,0.7,1.2,1.2,1.7
		c0.6,0.7,1.3,1.2,2,1.6c1.6,2,3.9,3.4,6.5,3.5c-1.5-0.4-2.8-1.3-3.8-2.4c0.3,0.1,0.6,0.1,0.8,0.2c0.8,0.6,1.7,1,2.6,1.3
		c-0.5-0.3-1-0.7-1.4-1.1c0.2,0,0.5,0,0.7,0.1c1.2,1.1,2.6,2,4.3,2.2c-1.2-0.5-2.2-1.2-3-2.1c0.5,0,1,0,1.6,0
		c-0.6-0.2-1.3-0.3-2-0.5c-1.3-1.8-2-4-2.5-6.1c0.2,0.4,0.3,0.8,0.5,1.2c1.5,3.2,4.3,6.1,8,6.5c0.2,0,0.5,0,0.7,0
		C556.9,631.5,554.6,628.7,553.5,625.5z M551.7,630.2c-0.4-0.1-0.7-0.3-1.1-0.4c-0.2-0.3-0.5-0.7-0.6-1c-0.9-1.7-1.3-3.7-1.6-5.6
		c0-0.3-0.1-0.7-0.1-1c0.5,2.1,1.1,4.1,2.1,6C550.8,628.9,551.3,629.6,551.7,630.2z"/>
</g>
<g>
	
		<rect x="230" y="906.5" transform="matrix(3.465565e-03 -1 1 3.465565e-03 -677.5698 1272.9934)" class="st0" width="139.9" height="139.9"/>
	
		<rect x="249.5" y="926" transform="matrix(3.465565e-03 -1 1 3.465565e-03 -677.5206 1273.1434)" class="st13" width="101" height="101.1"/>
	<path class="st7" d="M297,1002.7c0,0,4.3,24.2,5.5,23.4c1.2-0.8-1-23.8-1-23.8L297,1002.7z"/>
	<path class="st1" d="M276.6,968.1c-6.8-8.6-9.5-21.7-9.6-22.3l1.2-0.2c0,0.1,2.7,13.4,9.4,21.7L276.6,968.1z"/>
	<path class="st1" d="M288.2,967.2c-3.9-4.9-10-28.6-10.3-29.6l1.2-0.3c0.1,0.2,6.4,24.4,10.1,29.2L288.2,967.2z"/>
	
		<rect x="289.5" y="942.7" transform="matrix(0.9749 -0.2224 0.2224 0.9749 -204.8685 88.4173)" class="st1" width="1.2" height="22"/>
	
		<rect x="298.3" y="939.1" transform="matrix(0.9998 -2.051760e-02 2.051760e-02 0.9998 -19.4649 6.3338)" class="st1" width="1.2" height="25.4"/>
	<path class="st1" d="M305.5,962.5l-1.2-0.4c1.8-5.8,7.6-22,7.6-22.2l1.2,0.4C313.1,940.6,307.3,956.8,305.5,962.5z"/>
	<path class="st1" d="M308.2,970.3l-0.9-0.9c3.7-3.8,15-22.8,15.1-23l1.1,0.6C323,947.9,311.9,966.4,308.2,970.3z"/>
	<path class="st1" d="M324,964.7l-1.1-0.6c2.1-4.1,10.2-21.2,10.3-21.4l1.1,0.5C334.2,943.4,326.1,960.6,324,964.7z"/>
	<path class="st1" d="M315.5,979.2L315,978c3.8-1.6,20.9-22.9,27.1-31l1,0.8C342.2,949,320.5,977.2,315.5,979.2z"/>
	<path class="st22" d="M293.5,984.8c0,0-5.2-26.8,5.1-36.3c10.3-9.5,15.2,4.2,15.3,12.6c0.2,8.4-11.6,29.5-14.6,32.9
		S293.5,984.8,293.5,984.8z"/>
	<path class="st22" d="M279.8,972.6c0-0.5-16.6-25.2-20-24.6c-3.4,0.6-4.6,12.4-0.3,24.6c4.4,12.2,33.8,32.2,37.1,29.3
		C299.9,999.2,279.8,972.6,279.8,972.6z"/>
	<path class="st22" d="M299.2,1002.1c0,0,1.5,6.7,27.8-11.9c17.1-12.1,22.9-34.5,21.8-36c-1.1-1.6-12.5,3.3-23.9,12.5
		C313.6,975.9,289.5,1004.3,299.2,1002.1z"/>
	<path class="st23" d="M321.9,980.8c0,0,15.5-17.6,13-30.8c-1.3-6.7-27.3,10.1-34.5,21.9c-7.2,11.8-7.6,38.6,5.4,27.3L321.9,980.8z"
		/>
	<path class="st2" d="M300.1,1000.4c0,0-0.6-35.8-7.1-43.9c-6.4-8.1-17.7-15.8-20-12.7c-2.3,3.1-4.6,18.1,1.7,32.2
		C281,990.2,299.3,1009.3,300.1,1000.4z"/>
	<path class="st24" d="M278,940.7c0,0-4-4.7-1.6-5.9c2.4-1.1,4.5-1.3,4.8,1.1C281.6,938.3,281.6,941.5,278,940.7z"/>
	<path class="st24" d="M334.3,945.7c0,0-4-4.7-1.6-5.9c2.4-1.1,4.5-1.3,4.8,1.1C337.9,943.4,337.9,946.5,334.3,945.7z"/>
	<path class="st24" d="M322.4,950.1c0,0-4-4.7-1.6-5.9s4.5-1.3,4.8,1.1C326,947.7,326,950.9,322.4,950.1z"/>
	<path class="st24" d="M291.4,941.1c0,0-1.7,5.9-4,4.5c-2.3-1.4-3.6-3-1.7-4.6C287.4,939.4,290.1,937.6,291.4,941.1z"/>
	<path class="st24" d="M297.1,942.4c0,0-4-4.7-1.6-5.9s4.5-1.3,4.8,1.1C300.8,940,300.8,943.1,297.1,942.4z"/>
	<path class="st24" d="M266.4,947.9c0,0-4-4.7-1.6-5.9c2.4-1.1,4.5-1.3,4.8,1.1C270,945.6,270,948.7,266.4,947.9z"/>
	<path class="st24" d="M309.9,938.1c0,0,5.9-1.9,6,0.8c0.1,2.7-0.5,4.6-2.8,4.1C310.7,942.3,307.8,941.1,309.9,938.1z"/>
	<path class="st24" d="M341,945.3c0,0,5.9-1.9,6,0.8c0.1,2.7-0.5,4.6-2.8,4.1C341.9,949.5,338.9,948.4,341,945.3z"/>
	<path class="st7" d="M282.3,995.6c0,0,6.4,10.1,16.7,9.5c10.3-0.6,18-8.2,18-8.2s-5.2-1.4-8.6,1.1c0,0-0.9-2.9-3.7-3
		s-5.1,2.2-5.1,2.2s-3.8-3.9-6.4-2.7c-2.6,1.3-2.3,3.4-2.3,3.4S286.4,993.2,282.3,995.6z"/>
</g>
<g>
	
		<rect x="426.1" y="906.5" transform="matrix(3.465565e-03 -1 1 3.465565e-03 -482.0877 1469.0533)" class="st0" width="139.9" height="139.9"/>
	
		<rect x="445.6" y="925.9" transform="matrix(3.465565e-03 -1 1 3.465565e-03 -482.0386 1469.2034)" class="st2" width="101" height="101.1"/>
	<path class="st25" d="M498.8,978.2c0,0-3-22.1-18.7-35c-15.7-12.9-36.9-17.9-36.9-17.9s7.6,22.1,15.7,31.6
		c8.1,9.5,20.5,18.8,27.9,20.7C494.4,979.6,498.8,978.2,498.8,978.2z"/>
	<path class="st25" d="M496.8,981.4c0,0-11.7,18.1-26.5,25s-33.3,3.3-33.3,3.3s11.6-13.1,16.3-20.1c7.8-11.4,20.8-13.9,30.5-13.7
		c9.7,0.1,15,2,15,2L496.8,981.4z"/>
	<path class="st25" d="M499,1041c0,0,0.3-14-1.8-23.5c-2.1-9.5-8-30.1,1.6-39.2c0,0,15.8,12.6,17.2,29.6
		C517.3,1024.9,499,1041,499,1041z"/>
	<path class="st7" d="M516,1007.8c-0.6-8.2-4.6-15.4-8.6-20.6c2.7,4.3,4.9,8.9,6.2,13.7c0.6,2.4,1,4.9,1.1,7.3
		c0.1,2.4-0.3,4.8-0.9,7.1c-0.6,2.3-1.5,4.6-2.6,6.8c-1.1,2.2-2.4,4.3-3.8,6.3c-1.4,2-2.9,3.9-4.5,5.8c-0.7,0.8-1.3,1.5-2,2.2
		c0-0.5,0-1,0-1.5c-0.1-2-0.2-4-0.4-6c-0.3-4-0.9-8.1-1.9-12c-0.5-1.9-1-3.8-1.6-5.8c-0.5-1.9-1-3.8-1.5-5.7
		c-0.9-3.8-1.6-7.7-2-11.7c-0.1,8.7,2.5,18.1,3.7,23.7c2.1,9.5,1.8,23.5,1.8,23.5S517.3,1024.9,516,1007.8z"/>
	<path class="st25" d="M537.3,930c0.4-0.3-17.1-1.7-26.6,6.4s-20.3,22.2-12.9,41.1l1,0.6c0,0,13.5-8,20-15.6
		C525.2,955.1,524.2,939.5,537.3,930z"/>
	<path class="st25" d="M497.8,977.6c0,0,10.4-10.7,24.2-9.6c13.8,1,32.2,10.6,38.6,21.4c0,0-10.9-1.2-22.2-0.3
		c-11.3,0.8-19.3,0.2-26.3-1.9C501.9,984.2,497.8,977.6,497.8,977.6z"/>
	<path class="st7" d="M469,937.4c4.1,2.2,8.2,4.8,11.9,7.7c3.7,3,6.9,6.6,9.7,10.6c-2.6-4.4-6.1-8.8-10.5-12.5
		c-15.7-12.9-36.9-17.9-36.9-17.9s7.6,22.1,15.7,31.6c5.4,6.3,12.8,12.6,19.3,16.7c-4-3-7.8-6.3-11.3-9.9c-1.8-1.8-3.5-3.6-5.1-5.5
		c-1.6-1.9-3.1-3.8-4.4-5.9c-2.6-4.2-4.8-8.8-6.8-13.5c-1.5-3.5-3-7-4.3-10.6c3.3,1,6.6,2.1,9.8,3.4
		C460.6,933.2,464.9,935.2,469,937.4z"/>
	<path class="st7" d="M480,976c-9.1,0.5-19.9,3.6-26.8,13.7c-4.7,7-16.3,20.1-16.3,20.1s18.5,3.6,33.3-3.3
		c8.6-4,16.1-11.7,20.9-17.5c-3.7,3.7-7.4,7.2-11.5,10.3c-2,1.5-4.1,2.9-6.3,4.1c-1.1,0.6-2.2,1.2-3.3,1.7c-1.1,0.5-2.3,0.9-3.4,1.3
		c-4.7,1.5-9.6,2.3-14.5,2.4c-3.7,0.2-7.5,0-11.2-0.4c2.3-2.7,4.6-5.4,6.9-8.3c1.5-1.9,3-3.8,4.4-5.8c0.7-1,1.4-2,2.1-3
		c0.3-0.5,0.7-1,1-1.5c0.3-0.5,0.6-1,1-1.4c2.8-3.6,6.5-6.4,10.6-8.4C470.8,977.8,475.4,976.7,480,976z"/>
	<path class="st7" d="M510.7,936.5c-5.9,5.1-12.3,12.5-14.6,21.9c2.9-8.8,9.2-15.6,16-21c3.4-2.5,7.4-3.9,11.6-4.7
		c2.1-0.4,4.2-0.7,6.3-0.8c0.8,0,1.6-0.1,2.4-0.1c-0.3,0.3-0.6,0.6-0.8,0.9l-1.2,1.4l-0.6,0.7l-0.5,0.7l-1,1.5
		c-0.3,0.5-0.6,1.1-0.9,1.6c-0.6,1-1.1,2.2-1.6,3.2c-0.4,1.1-0.9,2.2-1.3,3.3c-0.8,2.2-1.5,4.5-2.1,6.7c-0.7,2.2-1.3,4.3-2.2,6.4
		c-0.9,2-2,3.8-3.5,5.4c-2.9,3.4-6.3,6.3-9.7,9.3c4.1-2.9,8.7-6.6,11.8-10.2c6.5-7.6,5.4-23.1,18.6-32.6
		C537.7,929.7,520.2,928.3,510.7,936.5z"/>
	<path class="st7" d="M538.3,989c11.3-0.8,22.2,0.3,22.2,0.3c-6.3-10.8-24.8-20.4-38.6-21.4c-4.1-0.3-7.9,0.4-11.2,1.6
		c4.6-1.1,9.2-1.3,13.7-0.3c2.3,0.5,4.5,1.1,6.7,1.9c2.2,0.7,4.3,1.6,6.4,2.6c4.2,1.9,8.2,4.3,11.9,7c1.9,1.3,3.6,2.9,5.2,4.5
		c0.6,0.6,1.2,1.3,1.8,1.9c-2.7-0.2-5.4-0.2-8.1-0.2c-2.1,0-4.1,0.1-6.2,0.2c-2.1,0.1-4.1,0.4-6.1,0.6c-4,0.4-8,0.7-12,0.6
		c-4,0-8-0.4-12.1-1.1C519.1,989.2,527,989.9,538.3,989z"/>
	<path class="st1" d="M523.4,937.1c0,0-23.6,21-25,40C498.4,977,504.5,958.6,523.4,937.1z"/>
	<path class="st1" d="M500.6,977.4c0,0,32.6-1,47.1,6.1C547.7,983.5,504.9,976.6,500.6,977.4z"/>
	<path class="st1" d="M504.1,1023.1c0,0,3-10.1,1.6-20.4c-1.5-10.3-7.3-23.3-7.3-23.3s5.6,18.6,5.9,24.4
		C504.6,1010.7,504.1,1023.1,504.1,1023.1z"/>
	<path class="st1" d="M453.2,1002.6c0,0,10.2-4.6,18.7-11.2c8.6-6.6,25.8-13.7,25.8-13.7s-18.8,5.7-25.4,10.4
		C465.7,992.6,453.2,1002.6,453.2,1002.6z"/>
	<path class="st1" d="M495.2,975.3c0,0-35.1-28.9-41-39.2C454.2,936.1,489,963.5,495.2,975.3z"/>
	<path class="st2" d="M498.1,977.7c0,0-7.3,1.3-10.3-0.6c-3.1-1.9,0.6-0.4,1.7,0C490.6,977.6,498.1,977.6,498.1,977.7z"/>
	<path class="st2" d="M488.9,967.1c0,0-0.8,3.2,1.4,5.5c2.1,2.3,7.9,5.7,7.7,5.1c-0.1-0.6-7-4.5-7.6-5.6
		C489.2,970.2,488.9,967.1,488.9,967.1z"/>
	<path class="st2" d="M493.5,966.5c0,0,2.3,4.9,2.8,7.5c0.5,2.7,1.7,3.7,1.7,3.7s-0.9-2.6-1.3-4.4
		C496.4,971.5,493.4,964.5,493.5,966.5z"/>
	<path class="st24" d="M490.5,977.5c0,0-0.8-0.9-2.1-1.4c-1.3-0.5-2.8-1.5-2.9-1c-0.1,0.5,0.4,1.7,1.6,2.4
		C488.4,978.3,491.2,978.5,490.5,977.5z"/>
	<path class="st24" d="M490.3,971.5c0,0,0.1-1.2-0.4-2.6c-0.5-1.4-0.8-3.2-1.2-2.9s-0.9,1.4-0.6,2.9
		C488.4,970.4,490,972.7,490.3,971.5z"/>
	<path class="st24" d="M495.4,969.5c0,0,0.1-1.2-0.4-2.6c-0.5-1.4-1.2-2.6-1.6-2.3c-0.4,0.3-0.5,0.8-0.2,2.3
		C493.5,968.4,495.1,970.7,495.4,969.5z"/>
</g>
<g>
	
		<rect x="426.1" y="726.5" transform="matrix(3.465565e-03 -1 1 3.465565e-03 -302.1535 1289.7417)" class="st0" width="139.9" height="139.9"/>
	
		<rect x="445.6" y="746" transform="matrix(3.465565e-03 -1 1 3.465565e-03 -302.1044 1289.8917)" class="st2" width="101" height="101.1"/>
	<polygon class="st26" points="471,791.4 480.8,778.5 534.3,778.1 547.8,795.3 	"/>
	<polygon class="st2" points="474.2,792.5 483.4,778.5 484.3,778.5 475.2,792.5 	"/>
	<path class="st26" d="M443.2,823.4c-4.6,0-8.3-3.7-8.3-8.3s3.7-8.3,8.3-8.3s8.3,3.7,8.3,8.3S447.8,823.4,443.2,823.4z"/>
	<path class="st7" d="M443.2,820c-2.7,0-4.9-2.2-4.9-4.9c0-2.7,2.2-4.9,4.9-4.9c2.7,0,4.9,2.2,4.9,4.9
		C448.1,817.8,445.9,820,443.2,820z"/>
	<path class="st27" d="M443.2,819.4c-2.4,0-4.3-1.9-4.3-4.3s1.9-4.3,4.3-4.3c2.4,0,4.3,1.9,4.3,4.3S445.5,819.4,443.2,819.4z"/>
	<circle class="st27" cx="443.2" cy="815.1" r="1.2"/>
	<path class="st7" d="M588,815c-13.3-13-25.9-24.3-42-33.6l-3-1.7c-2.8-1.6-6-2.5-9.2-2.5h-53.4c-0.4,0-0.7,0.3-0.7,0.7
		c0,0.4,0.3,0.7,0.7,0.7H526c2.2,0,4.3,1,5.7,2.7l8.9,9.8c0.2,0.2,0,0.4-0.2,0.4l-69.5-0.1l-47.9,5.1c-1.3,0.1-2.3,1.3-2.2,2.6
		l1.2,15.2c0,0.4,0.3,0.7,0.7,0.7h10.7c0.1-5.3,4.4-9.6,9.7-9.6c5.3,0,9.6,4.3,9.7,9.6h87.8c0.1-5.3,4.4-9.6,9.7-9.6
		c5.3,0,9.6,4.3,9.7,9.6L588,815z"/>
	<path class="st26" d="M550.4,823.4c-4.6,0-8.3-3.7-8.3-8.3s3.7-8.3,8.3-8.3s8.3,3.7,8.3,8.3S555,823.4,550.4,823.4z"/>
	<path class="st7" d="M550.4,820c-2.7,0-4.9-2.2-4.9-4.9c0-2.7,2.2-4.9,4.9-4.9s4.9,2.2,4.9,4.9C555.4,817.8,553.2,820,550.4,820z"
		/>
	<path class="st27" d="M550.4,819.4c-2.4,0-4.3-1.9-4.3-4.3s1.9-4.3,4.3-4.3s4.3,1.9,4.3,4.3S552.8,819.4,550.4,819.4z"/>
	<circle class="st27" cx="550.4" cy="815.1" r="1.2"/>
	<path class="st7" d="M421.7,810.8h7.8c1.2,0,2.1,0.9,2.1,2.1l0,0c0,1.2-0.9,2.1-2.1,2.1h-7.8c-1.2,0-2.1-0.9-2.1-2.1l0,0
		C419.6,811.7,420.5,810.8,421.7,810.8z"/>
	<path class="st7" d="M564.9,810.8h22.9c1.2,0,2.1,0.9,2.1,2.1l0,0c0,1.2-0.9,2.1-2.1,2.1h-22.9c-1.2,0-2.1-0.9-2.1-2.1l0,0
		C562.8,811.7,563.8,810.8,564.9,810.8z"/>
	<line class="st28" x1="476.1" y1="791.4" x2="476.1" y2="815"/>
	<line class="st28" x1="507.4" y1="791.4" x2="507.4" y2="815"/>
	<path class="st28" d="M540.6,791.4l0.3,9.9c-4.4,3-7.2,8-7.2,13.7"/>
	<line class="st27" x1="505.4" y1="793.1" x2="500.3" y2="793.1"/>
	<line class="st27" x1="539.8" y1="793.1" x2="534.7" y2="793.1"/>
	<line class="st27" x1="507.4" y1="790.9" x2="507.4" y2="778.5"/>
	<line class="st27" x1="427.3" y1="797.5" x2="472.7" y2="794.4"/>
	<path class="st27" d="M545.4,799.4c0,0,11.5-4.8,40.5,11.4"/>
	<line class="st27" x1="422.1" y1="810.8" x2="432.8" y2="810.8"/>
	<path class="st29" d="M480.9,793.1V788C480.9,788,473.3,792,480.9,793.1z"/>
	<path class="st6" d="M421.1,800.6h4.4c0.5,0,0.9,0.4,0.9,0.9v5.8c0,0.5-0.4,0.9-0.8,0.9l-3.9,0.3L421.1,800.6z"/>
</g>
<g>
	<g>
		
			<rect x="36.7" y="726.6" transform="matrix(3.465565e-03 -1 1 3.465565e-03 -690.2418 900.5076)" class="st0" width="139.9" height="139.9"/>
		
			<rect x="56.3" y="746.1" transform="matrix(3.465565e-03 -1 1 3.465565e-03 -690.1926 900.6576)" class="st1" width="101" height="101.1"/>
	</g>
	<polygon class="st30" points="77,769.7 62.7,801.8 150.9,801.8 133.3,770.5 	"/>
	<circle class="st30" cx="143.2" cy="815.2" r="8.5"/>
	<circle class="st6" cx="143.2" cy="815.2" r="5.6"/>
	<circle class="st27" cx="143.2" cy="815.2" r="5"/>
	<path class="st27" d="M143.2,816.8c-0.9,0-1.6-0.7-1.6-1.6s0.7-1.6,1.6-1.6c0.9,0,1.6,0.7,1.6,1.6S144.1,816.8,143.2,816.8z"/>
	<circle class="st30" cx="59.2" cy="815.2" r="8.5"/>
	<circle class="st6" cx="59.2" cy="815.2" r="5.6"/>
	<circle class="st27" cx="59.2" cy="815.2" r="5"/>
	<path class="st27" d="M59.2,816.8c-0.9,0-1.6-0.7-1.6-1.6s0.7-1.6,1.6-1.6c0.9,0,1.6,0.7,1.6,1.6S60.1,816.8,59.2,816.8z"/>
	<path class="st2" d="M187.5,810.5h-1l0-6c0-2.4-2-4.4-4.4-4.4h-17.3l-26.9-29.8c-1-1.2-2.5-1.8-4.1-1.8h-6.4H75
		c-0.6,0-1.1,0.5-1.1,1.1c0,0.6,0.5,1.1,1.1,1.1h5.4l-10.3,29.4H39.2c-1.2,0-2.2,1.1-1.9,2.3l1.6,8.1H37c-0.8,0-1.4,0.6-1.4,1.4
		s0.6,1.4,1.4,1.4h12.7c0.9-4.4,4.8-7.7,9.4-7.7c4.6,0,8.5,3.3,9.4,7.7h65.3c0.9-4.4,4.8-7.7,9.4-7.7c4.6,0,8.5,3.3,9.4,7.7h34.9
		c0.8,0,1.4-0.6,1.4-1.4S188.2,810.5,187.5,810.5z M71.3,800.1l10.3-29.4h42.8c2.3,0,4.4,1.5,5.2,3.7l8.8,25.7H71.3z"/>
	<line class="st27" x1="75.3" y1="768.8" x2="131.1" y2="768.8"/>
	<line class="st27" x1="163.8" y1="800.1" x2="139.8" y2="800.1"/>
	<line class="st27" x1="185.9" y1="810.5" x2="153.8" y2="810.5"/>
	<line class="st27" x1="49.5" y1="810.5" x2="39.5" y2="810.5"/>
	<path class="st7" d="M186.4,809h-1.9c-1.2,0-2.2-1-2.2-2.2l0,0c0-1.2,1-2.2,2.2-2.2h1.9V809z"/>
	<path class="st7" d="M41.9,808.9h-3.3l-1.1-5.3h4.4c0.4,0,0.7,0.3,0.7,0.7v3.8C42.6,808.6,42.3,808.9,41.9,808.9z"/>
	<line class="st27" x1="101.5" y1="770.6" x2="101.5" y2="800.1"/>
	<line class="st28" x1="101.5" y1="800.3" x2="101.5" y2="813.2"/>
	<line class="st28" x1="71.4" y1="800.1" x2="71.4" y2="813.2"/>
	<path class="st28" d="M138.3,800.1v4.3c0,0-6.8,2-6.8,8.9"/>
	<line class="st27" x1="95.7" y1="800.8" x2="100.4" y2="800.8"/>
	<line class="st27" x1="132.6" y1="800.8" x2="137.3" y2="800.8"/>
	<path class="st31" d="M76.8,802.2v-7.1c0,0-4.6,2-4.8,5C71.9,803.1,76.8,802.2,76.8,802.2z"/>
</g>
<g>
	
		<rect x="230" y="726.6" transform="matrix(3.465565e-03 -1 1 3.465565e-03 -497.6356 1093.6818)" class="st0" width="139.9" height="139.9"/>
	
		<rect x="249.5" y="746" transform="matrix(3.465565e-03 -1 1 3.465565e-03 -497.5864 1093.8318)" class="st13" width="101" height="101.1"/>
	<polygon class="st26" points="272.9,777.7 331.1,778.7 352.4,800.2 259.1,798.6 	"/>
	<path class="st7" d="M354,798.6l-18.6-19.3c-1.5-1.6-3.6-2.4-5.8-2.4H271c-0.6,0-1,0.4-1,1v0.9c0,0.6,0.4,1,1,1h49.5
		c2.7,0,5.2,1.3,6.7,3.6l10.2,15.3H354z"/>
	<polygon class="st7" points="274.3,777.7 272.9,777.7 265.4,799 266.8,799 	"/>
	<line class="st32" x1="296.9" y1="779.7" x2="296.9" y2="798.3"/>
	<path class="st6" d="M381,810.3h-1l-1.1-1.8l2.1-8.6c0.2-0.8-0.4-1.5-1.2-1.5H221.7c-1.5,0-2.7,1.2-2.7,2.7v8.4h-1.7
		c-0.9,0-1.6,0.7-1.6,1.6c0,0.9,0.7,1.6,1.6,1.6h1.7h13.7c0.3-4.9,4.4-8.9,9.4-8.9c5,0,9.1,3.9,9.4,8.9h86.7
		c0.3-4.9,4.4-8.9,9.4-8.9c5,0,9.1,3.9,9.4,8.9h8.9l15.5-0.1c0.4-0.1,0.8-0.6,0.8-1.1C382.1,810.8,381.6,810.3,381,810.3z"/>
	<line class="st28" x1="296.9" y1="798.3" x2="296.9" y2="812.5"/>
	<line class="st28" x1="267.3" y1="798.3" x2="267.3" y2="812.5"/>
	<path class="st28" d="M337,798.3v7.1c0,0-3.2,2.4-3.2,7.1"/>
	<path class="st26" d="M347.4,821.3c-4.6,0-8.3-3.7-8.3-8.3c0-4.6,3.7-8.3,8.3-8.3s8.3,3.7,8.3,8.3
		C355.7,817.6,352,821.3,347.4,821.3z"/>
	<path class="st0" d="M347.4,818.4c-3,0-5.4-2.4-5.4-5.4c0-3,2.4-5.4,5.4-5.4c3,0,5.4,2.4,5.4,5.4
		C352.8,816,350.4,818.4,347.4,818.4z"/>
	<path class="st33" d="M347.4,817.9c-2.7,0-4.8-2.2-4.8-4.8c0-2.7,2.2-4.8,4.8-4.8s4.8,2.2,4.8,4.8
		C352.3,815.7,350.1,817.9,347.4,817.9z"/>
	<path class="st33" d="M347.4,814.4c-0.8,0-1.4-0.6-1.4-1.4c0-0.8,0.6-1.4,1.4-1.4c0.8,0,1.4,0.6,1.4,1.4
		C348.8,813.8,348.2,814.4,347.4,814.4z"/>
	<path class="st26" d="M242,821.3c-4.6,0-8.3-3.7-8.3-8.3c0-4.6,3.7-8.3,8.3-8.3c4.6,0,8.3,3.7,8.3,8.3
		C250.2,817.6,246.5,821.3,242,821.3z"/>
	<path class="st0" d="M242,818.4c-3,0-5.4-2.4-5.4-5.4c0-3,2.4-5.4,5.4-5.4c3,0,5.4,2.4,5.4,5.4C247.4,816,245,818.4,242,818.4z"/>
	<path class="st33" d="M242,817.9c-2.7,0-4.8-2.2-4.8-4.8c0-2.7,2.2-4.8,4.8-4.8c2.7,0,4.8,2.2,4.8,4.8
		C246.8,815.7,244.7,817.9,242,817.9z"/>
	<path class="st33" d="M242,814.4c-0.8,0-1.4-0.6-1.4-1.4c0-0.8,0.6-1.4,1.4-1.4c0.8,0,1.4,0.6,1.4,1.4
		C243.4,813.8,242.8,814.4,242,814.4z"/>
	<line class="st32" x1="291.3" y1="799.3" x2="295.7" y2="799.3"/>
	<line class="st32" x1="331.7" y1="799.3" x2="336.2" y2="799.3"/>
	<line class="st32" x1="219.4" y1="809.7" x2="231.7" y2="809.7"/>
	<line class="st32" x1="379.2" y1="810.3" x2="360.2" y2="810.3"/>
	<path class="st2" d="M379.2,807.2l1.4-5.6l-1.8-0.3c-0.2,0-0.5,0.1-0.5,0.4l-0.5,4.6c0,0.2,0.1,0.4,0.3,0.5L379.2,807.2z"/>
	<path class="st2" d="M219.9,808.2h-1v-5.9h1c1.6,0,2.9,1.3,2.9,2.9l0,0C222.9,806.9,221.6,808.2,219.9,808.2z"/>
	<path class="st7" d="M272,800.8v-6.6c0,0-3.1,1.1-3.4,4.1C268.5,800,272,800.8,272,800.8z"/>
</g>
<path class="st14" d="M805.7,615.3C805.7,615.3,805.7,615.3,805.7,615.3l0-0.9c-0.3,0.1-0.6,0.3-0.9,0.4c0,0-0.1,0-0.1,0
	c0.1,0,0.1-0.1,0.2-0.1c0.3-0.1,0.5-0.2,0.5-0.2c0,0-0.2,0-0.5,0.1c-0.2,0-0.3,0.1-0.6,0.1c-1.4-0.2-3.2-0.1-5.2,0.6
	c-1.2,0.4-2.5,1.1-3.7,2c-1.2,0.9-2.3,2.1-3.2,3.5c-1.8,2.8-2.8,6.3-2.9,9.9c-0.1,3.6,0.4,6.9,0.8,9.9c0,0.1,0,0.2,0,0.3
	c0.4,2.9,0.8,5.5,1.1,7.6c0.7,4.5,1.3,7.3,1.3,7.3s0-2.8-0.1-7.4c0-0.2,0-0.4,0-0.6c0.2,1.1,0.4,2.1,0.5,3c0.8,4.3,1.4,7,1.4,7
	s0-1.4-0.1-3.8c0.3,3.6,0.6,5.7,0.6,5.7s0.3-2.8,0.5-7.4c0-0.3,0-0.6,0-0.9c0.2,1.5,0.3,2.9,0.3,4.1c0,0.6,0,1.1,0,1.7
	c0,0.5,0,1,0,1.5c0,0.5-0.1,0.9-0.1,1.3c0,0.4,0,0.8-0.1,1.1c-0.2,1.2-0.3,1.9-0.3,2c0-0.1,0.3-0.8,0.7-2c0.1-0.3,0.2-0.7,0.3-1.1
	c0.1-0.4,0.2-0.8,0.3-1.3c0.1-0.5,0.2-1,0.2-1.5c0.1-0.5,0.2-1.1,0.2-1.7c0.2-1.8,0.2-3.9,0.1-6.1c0.1,0.4,0.1,0.7,0.2,1
	c0.2,1.1,0.3,1.7,0.3,1.7s0-0.2,0-0.6c0.1,0.3,0.1,0.7,0.2,1c0.1,0.3,0.1,0.6,0.2,0.9c0,0.3,0.1,0.6,0.1,0.9
	c0.2,1.1,0.3,2.2,0.4,3.1c0.1,0.9,0.1,1.7,0.2,2.3c0.1,1.3,0.2,2,0.2,2s0.1-0.7,0.2-2c0.1-0.6,0.1-1.4,0.2-2.4c0-0.5,0-0.9,0-1.4
	c0.3-2.5,1.1-11.4,1-22c0-1.6,0-3.1-0.1-4.6c0-1.5-0.1-2.9,0-4.2c0.1-1.3,0.3-2.5,0.6-3.6c0.1-0.3,0.2-0.6,0.3-0.8
	c0.3-0.8,0.6-1.5,1.1-2.1c0.7-1,1.4-1.8,2.2-2.4c0.2-0.1,0.4-0.1,0.5-0.1c0.4-0.1,0.6-0.1,0.6-0.1s-0.2,0-0.6,0c-0.1,0-0.2,0-0.2,0
	c0.3-0.2,0.5-0.3,0.8-0.5c0.1,0,0.1,0,0.2,0c0.1,0,0.2,0,0.3,0v-0.5c-0.1,0-0.2,0-0.3,0.1c-0.1,0-0.2,0-0.2,0.1c0,0-0.1,0-0.1,0
	c0.1,0,0.1-0.1,0.2-0.1C805.5,615.3,805.6,615.3,805.7,615.3z"/>
<path class="st21" d="M798.9,620.7c-1.7,1.3-2.8,3.2-3.4,5.2c-0.6,2-0.6,4.2-0.4,6.3c-0.8-3.1-0.9-6.5,0.4-9.5
	c1.3-2.9,4.2-5.3,7.4-5.3C802.1,619,800.2,619.7,798.9,620.7z"/>
<path class="st21" d="M801.2,618c0,0.4-0.1,0.9-0.1,1.3c0,0.6-0.1,1.2-0.1,1.8c-0.1,0.3-0.2,0.5-0.3,0.8c-0.3,1.1-0.5,2.3-0.6,3.6
	c-0.1,1.3-0.1,2.7,0,4.2c0,1.5,0.1,3,0.1,4.6c0,10.6-0.8,19.4-1,22c0,0.5,0,1,0,1.4c-0.1,0.9-0.1,1.7-0.2,2.4c-0.1,1.3-0.2,2-0.2,2
	s-0.1-0.7-0.2-2c-0.1-0.6-0.1-1.4-0.2-2.3c-0.1-0.9-0.3-1.9-0.4-3.1c0-0.3-0.1-0.6-0.1-0.9c0-0.3-0.1-0.6-0.2-0.9
	c-0.1-0.3-0.1-0.7-0.2-1c0,0.4,0,0.6,0,0.6s-0.1-0.6-0.3-1.7c0-0.3-0.1-0.7-0.2-1c0.1,2.2,0.1,4.3-0.1,6.1c0,0.6-0.1,1.2-0.2,1.7
	c-0.1,0.5-0.1,1-0.2,1.5c-0.1,0.5-0.2,0.9-0.3,1.3c-0.1,0.4-0.2,0.8-0.3,1.1c-0.4,1.2-0.7,1.9-0.7,2c0-0.1,0.1-0.8,0.3-2
	c0.1-0.3,0.1-0.7,0.1-1.1c0-0.4,0.1-0.8,0.1-1.3c0-0.5,0-1,0-1.5c0-0.5,0-1.1,0-1.7c0-1.3-0.1-2.6-0.3-4.1c0,0.3,0,0.6,0,0.9
	c-0.2,4.6-0.5,7.4-0.5,7.4s-0.3-2.1-0.6-5.7c0.1,2.4,0.1,3.8,0.1,3.8s-0.6-2.7-1.4-7c-0.2-0.9-0.3-1.9-0.5-3c0,0.2,0,0.4,0,0.6
	c0.1,4.6,0.1,7.4,0.1,7.4s-0.6-2.8-1.3-7.3c-0.4-2.2-0.8-4.8-1.1-7.6c0.2-1.3,0.2-2.5,0-3.8c0.5,2.4,1.1,4.8,1.6,7.3
	c0.2-0.9,0.3-1.8,0.5-2.7c0.3,1.2,0.6,2.5,1,3.7c-0.5-5.2-0.5-10.4,0.1-15.6c0.5,3.1,1,6.3,1.5,9.4l0.9-4.6c0.4,1.4,0.8,2.9,1.3,4.3
	c0.1-3.2,0.2-6.5,0.3-9.7c0.1,0.5,0.2,1,0.4,1.5c-0.5-3.6,0.2-7.4,2.1-10.6C800.1,619.4,800.6,618.7,801.2,618z"/>
<path class="st21" d="M791.5,636.8c-1.1-4.8-0.5-9.9,1.6-14.3C792.3,627.3,791.7,632,791.5,636.8z"/>
<path class="st34" d="M857.9,658.1h-4.9l0.6,3.8l-1.6,1.9l1.4,0.3l0.1,0.2l7.4-1.6C859.3,660.9,858,660,857.9,658.1z"/>
<path class="st14" d="M853.4,664.3l0.7,1.5h8.8c-0.7-1.3-1.4-2.3-2.1-3.1L853.4,664.3z"/>
<path class="st34" d="M858.3,660.4c0,1-4.6,0.3-6.1-0.6c-0.4-0.3-0.1-0.6,0.1-1c1.6-2.8,0.4-9.5-0.1-13.7l6.4-0.8
	C857.2,649.1,858.4,657.5,858.3,660.4z"/>
<path class="st34" d="M858.6,645.3c0,2.3-1.7,4.1-3.6,3.9c-1.9-0.2-3.5-2.2-3.5-4.6c0-2.3,1.7-4.1,3.6-3.9
	C857.1,640.9,858.6,643,858.6,645.3z"/>
<path class="st34" d="M851.9,644.1c0.3-3.1-0.7-6.4-3-9.9l11.7-4.7c-0.9,5.2-2.3,11-3.2,16.1L851.9,644.1z"/>
<path class="st34" d="M809.6,659.6c-0.5,1-4.5-0.3-6-1.4c-0.5-0.3-0.1-0.8,0.1-1.2c1.7-3.5,2.2-5.9,1.8-11.1l7.3-0.1
	C809.1,650,811.2,656.7,809.6,659.6z"/>
<path class="st34" d="M807.5,630.8c0.6,4.1,1.9,7.8-1.8,12c0.1,2.4,4.4,3.3,7,3c5.9-9.5,11.3-7,16.5-17.2L807.5,630.8z"/>
<path class="st34" d="M811.5,645.3c-0.4,1.8-2.1,3.1-3.9,2.9c-1.8-0.2-2.9-1.9-2.6-3.7c0.4-1.8,2.1-3.1,3.9-2.9
	C810.6,641.8,811.8,643.4,811.5,645.3z"/>
<path class="st34" d="M809.6,658.1h-4.9l0,3.9l-1.9,1.9l1.4,0.3l0.1,0.3l7.8-1.5C810.8,660.9,809.5,660.1,809.6,658.1z"/>
<path class="st14" d="M804.3,664.4l0.5,1.4h8.8c-0.4-1.2-1-2.2-1.5-2.9L804.3,664.4z"/>
<path class="st2" d="M805.3,645.8c-3.5,4.1-1.7,10.4-3,13.5c-0.1,0.1-0.1,0.2-0.2,0.3c-0.2,0.4-1,0.4-1.9,0.2c-0.9-0.2-2-0.6-2.9-1
	c-0.4-0.2-0.8-0.4-1.1-0.6c-0.5-0.3-0.1-0.8,0.1-1.2c1.6-3.2,2.1-5.6,1.8-10.1c0-0.3,0-0.7-0.1-1l2.2,0l3.1-0.1l0.5,0L805.3,645.8z"
	/>
<path class="st2" d="M804,645.3c0,0.2-0.1,0.4-0.1,0.5c0,0,0,0,0,0c-0.6,1.5-2.1,2.5-3.7,2.3c0,0,0,0,0,0c-0.9-0.1-1.6-0.6-2-1.2
	c-0.5-0.7-0.7-1.6-0.5-2.5c0.1-0.7,0.5-1.4,1-1.9c0.6-0.6,1.5-1,2.4-1c0.2,0,0.3,0,0.5,0C803.2,641.8,804.4,643.4,804,645.3z"/>
<path class="st2" d="M856.6,638.6c-0.2,0.2-0.4,0.3-0.6,0.5c-1,0.7-2.1,1.3-3.3,1.5c-0.5,0.1-1,0.2-1.5,0.3
	c-0.9,0.2-1.8,0.4-2.6,0.5c-17.6,3.4-30.2,2.6-36.6-3.9c-3.5-3.6-5.1-9-4.6-16.4c0.1-3.8,6.8-8.1,9.8-9.5c5.2,1.4,9.4,0.7,15.5,0.1
	c2.3-0.3,4-0.6,5.7-0.9c2.1-0.5,4.1-1.1,6.5-2.3c5.8,3.2,12.6,6.7,15.8,12.4c0.5,0.9,1,1.9,1.3,3c0,0.1,0,0.1,0.1,0.2
	C862.3,628.6,860.5,635.2,856.6,638.6z"/>
<path class="st2" d="M871.2,600.7c-2.2,3.1-3.4,5-4.2,6.6c-0.1,0.1-0.1,0.2-0.2,0.3c-0.3,0.6-0.5,1.2-0.7,1.8
	c-0.7,2.1-1,4.3-2.8,9.5c-0.4,1.3-0.8,3.2-1.3,4.8c-0.4,1-0.8,1.9-1.5,2.4l-2-1.4l-20.1-14.1l0,0c5.1-3.8,7.6-6.8,11.5-11.4
	c3.4-4.1,9.9-8.4,16.1-7.6l0.1,0.2l3.6,6.3L871.2,600.7z"/>
<path class="st2" d="M875.2,602.3c0,1.7-0.6,3.7-1.7,5.2c-0.9,1.3-2.3,2.3-3.9,2.5c-0.2,0-0.3,0-0.5,0c-1.1,0-2.1-0.2-3-0.6
	c-0.7-0.3-1.3-0.6-1.8-1.1c-1.3-1.1-2.1-2.6-2.1-4.3c0-1,0.3-1.9,0.8-2.7c1.1-1.9,3.5-3.2,6.2-3.2c0.2,0,0.4,0,0.6,0
	C873.2,598.3,875.2,599.2,875.2,602.3z"/>
<path class="st2" d="M883.4,610.2c0,0.1-0.1,0.1-0.1,0.2c-0.3,0.5-2,1.7-2.5,1.9l-0.9,0.3l-1.4-2.3l-0.2,2.6
	c-1.7,0.1-2.6-0.9-2.8-2.7c0,0-5.7-0.2-5.9-0.2l0,0l-1.9-2l-0.7-0.7l-2.9-3.1l-0.6-0.6l-0.6-0.6v-10.4c0.5-0.2,1.1-0.3,1.6-0.5
	c0.5-0.2,1-0.2,1.6-0.3c1.6-0.1,3.1,0.5,4.4,1.5c3.6,2.9,8.7,6.9,10.9,9.9c0.8,1,2.2,2.3,2.2,4.4
	C883.7,608.2,883.8,609.3,883.4,610.2z"/>
<path class="st2" d="M804.6,662.8l-2.8,0.5l-4.9,1l-0.1-0.2l-1.4-0.3l1.9-1.9l0-3l0-0.8h4.9c0,0.5,0,0.8,0.1,1.2
	C802.6,660.5,803.6,661.4,804.6,662.8z"/>
<path class="st2" d="M801.6,615.4c-0.1,0-0.1,0-0.2,0C801.5,615.3,801.6,615.3,801.6,615.4C801.7,615.3,801.7,615.3,801.6,615.4z"/>
<path class="st14" d="M870,591.2c-0.4-0.2-1-0.2-1.7-0.1c-1.3,0.2-2.8,0.8-3.4,1.4c-1.2,1.2-1.2,3.5-1.4,5.1
	c-0.4,3.9-0.1,8-0.4,11.9c-0.5-0.5-0.6-1.4-1.2-1.8c-0.1,0.8-0.5,1.6-0.4,2.5c-0.2-0.3-0.5-0.5-0.6-0.8c-0.5,0.7-0.4,2.3-0.5,3.2
	c-0.1,1.1-0.2,2.3-0.3,3.4c-0.4-0.6-0.6-1.4-1.2-1.8c-0.4,1.2-0.5,2.5-0.9,3.7c-0.4-0.3-0.6-0.8-0.8-1.3c-0.5,1.1-0.4,2.8-1,3.7
	c-0.2-0.6-0.3-1.5-0.6-2c-0.2,2-0.3,4.1-1.1,6c-0.7-0.5-0.9-1.5-1.6-2c-0.4,0.8-0.5,1.8-0.9,2.6c-0.6-0.8-0.7-2-1-2.9
	c-0.5,2.3-0.7,4.6-1.6,6.8c-0.7-0.7-0.5-2.1-1.3-2.7c-0.8,1-0.7,2.4-1.5,3.5c-0.4-0.8-0.5-1.9-0.9-2.8c-0.5,1.3-0.7,3-1.2,4.4
	c-0.4-0.8-0.2-1.9-0.6-2.6c-0.8,1.8-1,4.4-1.3,6.4c-0.4-1.9-0.8-4.4-1.7-6.2c-0.5,1.2-0.9,2.3-1.2,3.5c-0.3-1.4-0.7-2.8-1.1-4.2
	c-0.3,0.2-0.5,0.6-0.5,1.1c-1.1-2.5-0.4-5.7-0.9-8.4c-0.1-0.4-0.1-0.7-0.2-1.1c-0.7-3.8-1.2-7.6,1.4-11c2.5-3.2,5.6-6.1,8.1-9.3
	C851.6,593,862,587.1,870,591.2z"/>
<path class="st2" d="M871.6,586.2c-3,1-5.2,4.2-6.6,7.7l4.3-0.2L871.6,586.2z"/>
<path class="st14" d="M877.6,593.5c0,0.5,0.5,1,0.8,1.3c-0.5,0.1-0.9-0.1-1.4-0.1c0.1,0.5,0.6,0.9,1,1.3c-0.4,0.2-1.4-0.1-1.5,0.4
	c0,0.2,0.7,0.9,0.8,1.1c-1.1,0.1-1.9-0.1-2.8-0.5c0,0.3,0.1,0.6,0.1,0.9c-1.1,0-2.4-1.1-3.3-1.8c0,0,0,0-0.1-0.1
	c-1-0.8-1.1-1.6-1.8-2.7c-1.5-2.5-4.4-2-6.9-2.2c-0.8,0-1.4-0.5-2-0.4c2.3-1.6,4.8-1.8,7.6-1.9c2.9-0.1,5.5-0.2,7.9,1.7
	c0.5,0.4,1,0.9,1.4,1.5c0.4,0.5,0.8,1,1.3,1.5C878.4,593.5,878,593.5,877.6,593.5z"/>
<path class="st21" d="M851.3,640.9c-18.9,4-32.5,3.4-39.2-3.4v-4.1c7,8.5,29.1,7.3,39-2.4L851.3,640.9z"/>
<path class="st2" d="M821.9,628.5c-1,1.9-1.9,3.3-2.9,4.5c-4.3,5.2-8.8,5-13.6,12.7c-0.4,0.1-0.9,0.1-1.5,0.1c-0.2,0-0.3,0-0.5,0
	c-1.1-0.1-2.2-0.3-3.1-0.8c-1.1-0.5-1.9-1.2-1.9-2.3c0.1-0.1,0.2-0.2,0.2-0.3c2.9-3.4,2.4-6.6,1.8-9.9c-0.1-0.6-0.2-1.2-0.3-1.8
	l1.6-0.2L821.9,628.5z"/>
<path class="st2" d="M822.8,623.4c-0.3,4.4-1.4,7.6-3.8,9.7c-2.6,2.3-6.7,3.2-12.5,3c-0.9,0-1.7-0.1-2.5-0.4
	c-1.4-0.5-2.6-1.4-3.5-3.1c-0.7-1.3-1.1-3.2-1.2-5.6c-0.2-3.2,0.2-6.3,1.2-8.8c1.9-4.8,6.1-7.9,13-7.4
	C820.2,611.2,823.3,615.3,822.8,623.4z"/>
<path class="st14" d="M806.1,665.8h-8.8l-0.5-1.4l4.9-1l2.8-0.5C805.1,663.6,805.7,664.5,806.1,665.8z"/>
<path class="st21" d="M800.1,648.1c-0.3,2.1-0.9,4.2-0.9,6.4c0,1.2,0.1,2.4,0.4,3.5c0.2,0.6,0.3,1.2,0.6,1.8c0.4,1.2,1,2.4,1.6,3.5
	c0.4,0.8,0.9,1.6,1.4,2.4h-5.8l-0.5-1.4l-0.1-0.2l-1.4-0.3l1.9-1.9l0-3c-0.4-0.2-0.8-0.4-1.1-0.6c-0.5-0.3-0.1-0.8,0.1-1.2
	c1.6-3.2,2.1-5.6,1.8-10.1c-0.5-0.7-0.7-1.6-0.5-2.5c0.1-0.7,0.5-1.4,1-1.9c2.9-3.4,2.4-6.6,1.8-9.9c-0.7-1.3-1.1-3.2-1.2-5.6
	c-0.2-3.2,0.2-6.3,1.2-8.8c-0.9,4.2-0.4,8.6,1.3,12.5c0.3,0.6,0.6,1.2,0.9,1.7c0.6,1,1.3,2.1,1.3,3.2c0,0,0,0.1,0,0.1
	c0,0.9-0.4,1.7-0.9,2.4c-0.7,1.1-1.5,2.2-2.1,3.4c-0.2,0.4-0.4,0.9-0.5,1.4c-0.2,0.7-0.2,1.4-0.2,2.2c0,0.3,0,0.5,0,0.8
	c0,0.3,0,0.5,0,0.8C800.2,647.2,800.2,647.7,800.1,648.1z"/>
<path class="st21" d="M802,618.9c-0.8,2.9-0.6,6.2,0.6,9c1.2,2.8,3.3,5.2,6,6.7C804.3,630.6,802.1,624.7,802,618.9z"/>
<path class="st2" d="M854.5,662.7l-3.2,0.7l-4.5,1l-0.1-0.3l-1.4-0.3l1.9-1.9l0-1.7l0-2.1h4.9c0,0.5,0,1,0.2,1.4
	C852.7,660.6,853.6,661.4,854.5,662.7z"/>
<path class="st14" d="M856.1,665.8h-8.8l-0.5-1.4l4.5-1l3.2-0.7C855.1,663.5,855.6,664.5,856.1,665.8z"/>
<path class="st2" d="M854.8,644.1c-0.4,1-0.8,2.2-1,3.4c-0.9,4.2-1.1,9.3-1.4,11.9c0,0.3-0.1,0.6-0.1,0.8c-0.1,0.4-0.9,0.5-1.9,0.5
	c-1-0.1-2.2-0.3-3-0.6c-0.4-0.1-0.8-0.3-1-0.5c-0.4-0.3,0-0.6,0.2-1c1.7-2.4,1.7-7.5,1.8-11.5c0-0.8,0-1.6,0-2.3l2.3-0.3l0.1,0
	l3.8-0.5L854.8,644.1z"/>
<path class="st2" d="M854.8,645.1c-0.1,0.9-0.5,1.8-1,2.4c-0.8,1-1.9,1.6-3.1,1.5c-0.1,0-0.2,0-0.3,0c-0.9-0.2-1.7-0.8-2.2-1.8
	c-0.4-0.8-0.5-1.8-0.4-2.8c0.1-0.7,0.4-1.4,0.7-2c0.3-0.5,0.8-1,1.3-1.3c0.6-0.4,1.4-0.6,2.1-0.6c1.4,0.1,2.4,1.2,2.8,2.7
	C854.9,643.8,854.9,644.5,854.8,645.1z"/>
<path class="st2" d="M858.9,629.3c-1.4,4.5-2.8,9.4-4.2,13.9c-0.1,0.3-0.2,0.6-0.3,0.9c-0.1,0.5-0.3,0.9-0.4,1.4l-3.4-0.9l-0.2,0
	l-1.9-0.5c-0.1-0.6-0.1-1.1-0.1-1.7c0-2.1,0.2-4.3-0.1-6.4c-0.1-0.7-0.3-1.4-0.7-2.1C845.5,627.6,852.4,629.1,858.9,629.3z"/>
<path class="st21" d="M853,665.8h-5.6l-0.5-1.4l-0.1-0.3l-1.4-0.3l1.9-1.9l0-1.7c-0.4-0.1-0.8-0.3-1-0.5c-0.4-0.3,0-0.6,0.2-1
	c1.7-2.4,1.7-7.5,1.8-11.5c-0.4-0.8-0.5-1.8-0.4-2.8c0.1-0.7,0.4-1.4,0.7-2c0-2.1,0.2-4.3-0.1-6.4c0.6,1.6,1.1,3.2,1.4,4.8
	c0,0.1,0,0.1,0,0.2c0.2,1.2,0.3,2.4,0.7,3.5c0,0,0,0,0,0.1c0.1,0.2,0.2,0.5,0.3,0.7c0.2,0.3,0.4,0.7,0.4,1.1c0,0.4-0.2,0.8-0.4,1.2
	c-0.2,0.4-0.4,0.9-0.5,1.3c-0.6,2.2-0.6,4.6-0.6,6.9c0,0.7,0,1.4,0.1,2.2c0.1,0.9,0.2,1.8,0.4,2.7c0,0.2,0.1,0.4,0.2,0.6
	c0.2,0.7,0.5,1.4,0.9,2.1C851.8,664.2,852.4,665,853,665.8z"/>
<path class="st21" d="M883.4,610.2c0,0.1-0.1,0.1-0.1,0.2c-0.3,0.5-2,1.7-2.5,1.9l-0.9,0.3l-1.4-2.3l-0.2,2.6
	c-1.7,0.1-2.6-0.9-2.8-2.7c0,0-5.7-0.2-5.9-0.2l0,0c-0.2,0-0.3,0-0.5,0c-1.1,0-2.1-0.2-3-0.6c-0.7,2.1-1,4.3-2.8,9.5
	c-0.4,1.3-0.8,3.2-1.3,4.8c0,0.1,0,0.1,0.1,0.2c0.2,4.6-1.6,11.2-5.5,14.6c0.9-2.4,1.5-5,1.8-7.5c0.1-0.6,0.1-1.1,0.2-1.7
	c0.1-1.5,0.1-3,0-4.5c-0.1-0.8-0.2-1.6-0.3-2.4c1-0.1,1.8-0.7,2.5-1.6c0.5-0.6,0.9-1.4,1.2-2.1c1.5-3.1,3-6.5,2.5-9.9
	c0-0.1,0-0.3-0.1-0.4c-0.3-1.6-1-3.2-0.8-4.7c0-0.4,0.1-0.7,0.3-1.1c0,0.6,0.1,1.1,0.3,1.7c0.5,1.4,1.5,2.7,2.8,3.4
	c0.1,0.1,0.2,0.1,0.3,0.2c0.2,0.1,0.3,0.1,0.5,0.2c1.9,0.7,4.1,0.3,5.7-1c0,0.2,0,0.4,0.1,0.5c0.2,0.4,0.5,0.7,0.9,1
	c0.5,0.3,1.2,0.4,1.8,0.5C878.6,609.4,881,609.8,883.4,610.2z"/>
<path class="st21" d="M868.3,591.1c-1.3,0.2-2.8,0.8-3.4,1.4c-1.2,1.2-1.2,3.5-1.4,5.1c-0.4,3.9-0.1,8-0.4,11.9
	c-0.5-0.5-0.6-1.4-1.2-1.8c-0.1,0.8-0.5,1.6-0.4,2.5c-0.2-0.3-0.5-0.5-0.6-0.8c-0.5,0.7-0.4,2.3-0.5,3.2c-0.1,1.1-0.2,2.3-0.3,3.4
	c-0.4-0.6-0.6-1.4-1.2-1.8c-0.4,1.2-0.5,2.5-0.9,3.7c-0.4-0.3-0.6-0.8-0.8-1.3c-0.5,1.1-0.4,2.8-1,3.7c-0.2-0.6-0.3-1.5-0.6-2
	c-0.2,2-0.3,4.1-1.1,6c-0.7-0.5-0.9-1.5-1.6-2c-0.4,0.8-0.5,1.8-0.9,2.6c-0.6-0.8-0.7-2-1-2.9c-0.5,2.3-0.7,4.6-1.6,6.8
	c-0.7-0.7-0.5-2.1-1.3-2.7c-0.8,1-0.7,2.4-1.5,3.5c-0.4-0.8-0.5-1.9-0.9-2.8c-0.5,1.3-0.7,3-1.2,4.4c-0.4-0.8-0.2-1.9-0.6-2.6
	c-0.8,1.8-1,4.4-1.3,6.4c-0.4-1.9-0.8-4.4-1.7-6.2c-0.5,1.2-0.9,2.3-1.2,3.5c-0.3-1.4-0.7-2.8-1.1-4.2c-0.3,0.2-0.5,0.6-0.5,1.1
	c-1.1-2.5-0.4-5.7-0.9-8.4c-0.1-0.4-0.1-0.7-0.2-1.1c0.1-1,0.3-2,0.5-3c0,3.1,0.5,6.3,1.6,9.2c-0.4-5.1-0.4-10.2,0-15.3
	c0.2,4.2,0.8,8.3,1.9,12.4c0.2-0.9,0.5-1.8,0.7-2.7c0.1,2,0.7,3.9,1.6,5.6c-0.3-4.6-0.5-9.2-0.8-13.7c0.8,3,1.7,6,2.5,9
	c0.5-1.6,1-3.3,1.5-4.9c-0.2,2.2-0.1,4.5,0.4,6.7c0.2-0.8,0.4-1.6,0.6-2.4c0.1,1,0.6,2,1.4,2.8c-1-6.9-1.1-13.9-0.3-20.8
	c0.7,3.5,1.3,7,1.7,10.6c-0.1-0.9,0.1-1.9,0.6-2.7c0.4,2.2,0.8,4.4,1.2,6.6c0.4-1.5,0.7-3.1,1.1-4.7c0.1,0.5,0.3,1,0.4,1.6
	c0.9-2.1,1.3-4.5,1.1-6.8c0.6,1.5,1.1,2.9,1.7,4.4c-0.2-3.1-0.1-6.3,0.2-9.4c0.6,2.1,1.3,4.1,1.9,6.2c0.2-3.4,0.4-6.7,0.5-10.1
	c0.5,2.7,1,5.4,1.6,8c0.3-0.7,0.6-1.3,0.9-2c0.1,0.3,0.3,0.7,0.4,1c0.4-3.6-2.1-7.5-0.5-10.8c0.7-1.4,2.1-2.4,3.6-2.9
	C866.1,591.2,867.2,591.1,868.3,591.1z"/>
<path class="st2" d="M869.4,585.3c-2.8,1.4-4.5,5-5.3,8.6l4.3-0.9L869.4,585.3z"/>
<path class="st21" d="M877.6,593.5c0,0.5,0.5,1,0.8,1.3c-0.5,0.1-0.9-0.1-1.4-0.1c0.1,0.5,0.6,0.9,1,1.3c-0.4,0.2-1.4-0.1-1.5,0.4
	c0,0.2,0.7,0.9,0.8,1.1c-1.1,0.1-1.9-0.1-2.8-0.5c0,0.3,0.1,0.6,0.1,0.9c-1.1,0-2.4-1.1-3.3-1.8c0,0,0,0-0.1-0.1
	c-0.4-0.5-0.7-1-1-1.6c0.8,0.6,1.7,1,2.6,1.3c-1.3-1.1-2.6-2.4-3.1-4c1.4,1.5,3.1,2.5,5.1,3.1c-0.6-0.8-1.3-1.5-2.1-2.2
	c0.6,0.3,1.3,0.5,1.9,0.8c-1.4-1.4-3-2.7-4.7-3.7c2.2,0.7,4.3,1.7,6.2,3.1c-0.8-1.1-1.7-2.1-2.8-3c1.4,0.6,2.6,1.6,4,2.1
	c0.4,0.5,0.8,1,1.3,1.5C878.4,593.5,878,593.5,877.6,593.5z"/>
<path class="st34" d="M873.6,598.2c0.3,0,0.5,0.1,0.8,0.2l-0.4-0.8c-1.5-0.3-2.5,0.1-3.5,1.2c0.5-0.2,1-0.4,1.5-0.5
	c-0.2,0.2-0.4,0.5-0.3,0.7c0,0.5,0.6,0.9,1.2,0.8c0.6-0.1,1.1-0.5,1.1-1C873.9,598.5,873.8,598.3,873.6,598.2z"/>
<path class="st34" d="M881.7,606.4c0.5-0.6,1.1-0.6,1.2,0.2c0.1,0.7-0.1,1.5-0.5,2.1C881.6,608.8,880.7,607.8,881.7,606.4z"/>
<path class="st34" d="M865.8,593.4c0.3-3.2,2.2-6.1,2.8-6.8c0,0.2-0.7,5.5-1,6.4C867.2,593,866,593.2,865.8,593.4z"/>
<g>
	<path class="st6" d="M1007.4,554.3c-33.7,0-61.1,9-61.1,20.2v34.6v34.6v34.6c0,11.2,27.4,20.2,61.1,20.2s61.1-9,61.1-20.2v-34.6
		v-34.6v-34.6C1068.5,563.4,1041.1,554.3,1007.4,554.3z"/>
	<ellipse class="st5" cx="1007.4" cy="574.5" rx="61.1" ry="20.2"/>
	<path class="st4" d="M1068.5,609.2v34.6c0,11.2-27.4,20.2-61.1,20.2s-61.1-9-61.1-20.2v-34.6c0,11.2,27.4,20.2,61.1,20.2
		S1068.5,620.3,1068.5,609.2z"/>
	<circle class="st0" cx="958.4" cy="603.4" r="5"/>
	<circle class="st0" cx="958.4" cy="638.3" r="5"/>
	<circle class="st0" cx="958.4" cy="673.2" r="5"/>
</g>
</svg>
